<svg version="1.1" id="Layer_1" x="0" y="0" xml:space="preserve" width="1566.585" height="640.6" xmlns="http://www.w3.org/2000/svg"><style type="text/css" id="style824">.st3{fill:#f23841}.st4{fill:#84d4f6}.st5{fill:#0d76a8}.st6{fill:#fff}.st7{fill:#fc6e27}.st8{fill:#121e38}.st9{fill:none}.st10{fill:#252a30}.st12{fill:#d9f4ff}</style><g id="XMLID_1_" transform="translate(-116.757 -388.7)"><g id="XMLID_2_"><path id="XMLID_3_" d="M900 388.7c-401.7 0-640 77.9-741.5 121.2-33.2 14.2-49.8 51.7-37.9 85.8l78.2 224.7c43.5 125 161.4 208.9 293.8 208.9h814.9c132.4 0 250.3-83.8 293.8-208.9l78.2-224.7c11.9-34.1-4.7-71.6-37.9-85.8C1540 466.6 1301.7 388.7 900 388.7Z" style="fill:#080b12"/></g><g id="XMLID_207_"><path id="XMLID_445_" d="M1307.4 1018.3H492.6c-127.6 0-241.5-81-283.4-201.5L131 592.1c-9.9-28.5 4-60.2 31.8-72 49.3-21 133.7-51.3 256-76.2 144.1-29.3 306-44.1 481.1-44.1 175.1 0 337 14.8 481.1 44.1 122.3 24.9 206.8 55.2 256 76.2 27.8 11.9 41.8 43.5 31.8 72l-78.2 224.7c-41.7 120.5-155.6 201.5-283.2 201.5zM900 407.7c-174.6 0-335.9 14.8-479.5 44-121.7 24.7-205.6 54.8-254.5 75.7-23.9 10.2-36 37.5-27.4 62.1l78.2 224.7c40.8 117.3 151.6 196.1 275.8 196.1h814.9c124.2 0 235-78.8 275.8-196.1l78.2-224.7c8.6-24.6-3.5-51.9-27.4-62.1-48.9-20.9-132.8-51-254.5-75.7-143.7-29.2-305-44-479.6-44z" style="fill:#0e2759"/></g><g id="XMLID_8_"><g id="XMLID_32_"><g id="XMLID_33_"><path id="XMLID_444_" class="st3" d="M713.6 799.4c-.3 0-.5 0-.8-.1l-25.5-6.8c-1.6-.4-2.6-2.1-2.1-3.7.4-1.6 2.1-2.6 3.7-2.1l25.5 6.8c1.6.4 2.6 2.1 2.1 3.7-.4 1.3-1.6 2.2-2.9 2.2z"/></g><g id="XMLID_35_"><path id="XMLID_443_" class="st3" d="M688.1 698.9c-1.3 0-2.5-.9-2.9-2.2-.4-1.6.5-3.2 2.1-3.7l25.5-6.8c1.6-.4 3.2.5 3.7 2.1.4 1.6-.5 3.2-2.1 3.7l-25.5 6.8c-.3.1-.5.1-.8.1z"/></g><g id="XMLID_36_"><path id="XMLID_442_" class="st3" d="M641.3 617.9c-.8 0-1.5-.3-2.1-.9-1.2-1.2-1.2-3.1 0-4.2l18.7-18.7c1.2-1.2 3.1-1.2 4.2 0 1.2 1.2 1.2 3.1 0 4.2L643.4 617c-.5.6-1.3.9-2.1.9z"/></g><g id="XMLID_37_"><path id="XMLID_441_" class="st3" d="M560.3 571.1c-.3 0-.5 0-.8-.1-1.6-.4-2.6-2.1-2.1-3.7l6.8-25.5c.4-1.6 2.1-2.5 3.7-2.1 1.6.4 2.6 2.1 2.1 3.7l-6.8 25.5c-.4 1.3-1.6 2.2-2.9 2.2z"/></g><g id="XMLID_39_"><path id="XMLID_440_" class="st4" d="M466.6 571.1c-1.3 0-2.5-.9-2.9-2.2l-6.8-25.5c-.4-1.6.5-3.2 2.1-3.7 1.6-.4 3.2.5 3.7 2.1l6.8 25.5c.4 1.6-.5 3.2-2.1 3.7-.2 0-.5.1-.8.1z"/></g><g id="XMLID_41_"><path id="XMLID_439_" class="st4" d="M385.6 617.9c-.8 0-1.5-.3-2.1-.9l-18.7-18.7c-1.2-1.2-1.2-3.1 0-4.2 1.2-1.2 3.1-1.2 4.2 0l18.7 18.7c1.2 1.2 1.2 3.1 0 4.2-.6.6-1.3.9-2.1.9z"/></g><g id="XMLID_42_"><path id="XMLID_438_" class="st4" d="M338.8 698.9c-.3 0-.5 0-.8-.1l-25.5-6.8c-1.6-.4-2.6-2.1-2.1-3.7.4-1.6 2.1-2.5 3.7-2.1l25.5 6.8c1.6.4 2.6 2.1 2.1 3.7-.4 1.4-1.6 2.2-2.9 2.2z"/></g><g id="XMLID_43_"><path id="XMLID_437_" class="st4" d="M313.3 799.4c-1.3 0-2.5-.9-2.9-2.2-.4-1.6.5-3.2 2.1-3.7l25.5-6.8c1.6-.4 3.2.5 3.7 2.1.4 1.6-.5 3.2-2.1 3.7l-25.5 6.8c-.3 0-.5.1-.8.1z"/></g></g><g id="XMLID_5_"><g id="XMLID_61_"><path id="XMLID_436_" class="st4" d="M324.5 744.1h-18c-.8 0-1.5-.7-1.5-1.5s.7-1.5 1.5-1.5h18c.8 0 1.5.7 1.5 1.5s-.7 1.5-1.5 1.5z"/></g><g id="XMLID_78_"><path id="XMLID_435_" class="st4" d="M349.9 649.5c-.3 0-.5-.1-.7-.2l-15.6-9c-.7-.4-1-1.3-.5-2 .4-.7 1.3-1 2-.5l15.6 9c.7.4 1 1.3.5 2-.3.4-.8.7-1.3.7z"/></g><g id="XMLID_88_"><path id="XMLID_434_" class="st4" d="M419.2 580.3c-.5 0-1-.3-1.3-.8l-9-15.6c-.4-.7-.2-1.6.5-2 .7-.4 1.6-.2 2 .5l9 15.6c.4.7.2 1.6-.5 2-.2.2-.4.3-.7.3z"/></g><g id="XMLID_89_"><path id="XMLID_433_" class="st4" d="M513.8 555c-.8 0-1.5-.7-1.5-1.5v-18c0-.8.7-1.5 1.5-1.5s1.5.7 1.5 1.5v18c0 .9-.6 1.5-1.5 1.5z"/></g><g id="XMLID_92_"><path id="XMLID_432_" class="st3" d="M608.4 580.5c-.3 0-.5-.1-.7-.2-.7-.4-1-1.3-.5-2l9-15.6c.4-.7 1.3-1 2-.5.7.4 1 1.3.5 2l-9 15.6c-.3.4-.8.7-1.3.7z"/></g><g id="XMLID_93_"><path id="XMLID_431_" class="st3" d="M677.6 649.8c-.5 0-1-.3-1.3-.8-.4-.7-.2-1.6.5-2l15.6-9c.7-.4 1.6-.2 2 .5.4.7.2 1.6-.5 2l-15.6 9c-.2.2-.5.3-.7.3z"/></g><g id="XMLID_95_"><path id="XMLID_430_" class="st3" d="M720.9 744.4h-18c-.8 0-1.5-.7-1.5-1.5s.7-1.5 1.5-1.5h18c.8 0 1.5.7 1.5 1.5 0 .9-.7 1.5-1.5 1.5z"/></g></g><g id="XMLID_34_"><path id="XMLID_427_" class="st5" d="M595.1 907H432.2c-40.5 0-78.5-21.2-99.2-55.4-19.9-32.8-30.4-70.6-30.4-109.1 0-56.4 21.9-109.3 61.8-149.2 39.8-39.9 92.8-61.8 149.2-61.8h.1c56.5 0 109.5 21.9 149.3 61.7 39.8 39.8 61.7 92.8 61.7 149.4 0 37.9-10.2 75.1-29.4 107.5C674.4 885.2 636 907 595.1 907Zm-81.5-367.5c-112 0-203 91.1-203 203 0 37.1 10.1 73.4 29.2 105 19.2 31.8 54.6 51.5 92.3 51.5H595c38.1 0 73.9-20.3 93.3-53.1 18.5-31.2 28.3-66.9 28.3-103.4 0-54.4-21.1-105.4-59.4-143.7-38.2-38.2-89.2-59.3-143.6-59.3Z"/></g><g id="XMLID_73_"><path id="XMLID_7_" class="st3" d="M427.1 698.5 360.7 657l69.3 36.3c1.5.8 2 2.6 1.3 4.1-.8 1.5-2.6 2-4.1 1.3 0-.1-.1-.1-.1-.2z"/></g><g id="XMLID_74_"><path id="XMLID_424_" class="st5" d="M595.1 795H432.2c-1.3 0-2.4-.5-3-1l-.3-.2-.2-.3c-9.2-15.3-14.1-32.9-14.1-51 0-54.6 44.4-99 99-99 26.6 0 51.5 10.3 70.2 28.9 18.6 18.6 28.9 43.5 28.9 70.1 0 17.8-4.7 35.2-13.7 50.4-.8 1.2-2.4 2.1-3.9 2.1zm-163.2-4H595.1c.1 0 .4-.1.4-.2 8.6-14.5 13.1-31.2 13.1-48.3 0-25.5-9.8-49.4-27.7-67.3s-41.8-27.7-67.3-27.7c-52.4 0-95 42.6-95 95 0 17.2 4.6 33.9 13.3 48.5z"/></g><g id="XMLID_58_"><path id="XMLID_418_" class="st6" d="M472.5 729.6h29.2v8.5h-38.5v-8.7c0-6.1 2.2-10.6 6.5-13.4 1.5-.9 3.2-1.8 5.1-2.5l10.5-4c2.3-.9 4-2 5.1-3.3 1.1-1.3 1.6-3 1.6-5s-.7-3.7-2.1-5c-1.4-1.3-3.4-2-6.1-2-2.6 0-4.8.6-6.5 1.9-1.7 1.3-2.7 3.1-3 5.6H464c.1-5 2-8.9 5.7-11.7 3.4-2.6 8-3.9 13.8-3.9 5.3 0 9.7 1.4 13.1 4.2 3.5 2.9 5.3 6.5 5.3 10.8 0 4.2-1.1 7.6-3.2 10.2-2.1 2.5-5.4 4.7-9.9 6.4l-10.6 4.1c-2 .8-3.5 1.7-4.4 2.6-.9 1-1.4 2.2-1.4 3.7v1.5z"/><path id="XMLID_420_" class="st6" d="M509.8 737.1c-1.2-1.2-1.8-2.6-1.8-4.4 0-1.8.6-3.3 1.8-4.5 1.2-1.2 2.8-1.8 4.6-1.8 1.9 0 3.5.6 4.7 1.8 1.3 1.2 1.9 2.7 1.9 4.5 0 1.8-.6 3.3-1.9 4.4-1.3 1.2-2.8 1.7-4.7 1.7-1.9 0-3.4-.6-4.6-1.7z"/><path id="XMLID_422_" class="st6" d="M540.2 707c2.8-.5 5.5-.7 8.1-.7 5.3 0 9.5 1.3 12.7 3.8 3.1 2.5 4.7 6.2 4.7 11 0 5.2-1.8 9.5-5.3 12.8-3.7 3.5-8.4 5.3-14.1 5.3-5.6 0-10.1-1.4-13.5-4.2-3.5-2.9-5.3-7-5.4-12.1h9.5c0 2.7.9 4.6 2.7 5.9 1.8 1.3 4.1 1.9 6.8 1.9 2.8 0 5.1-.9 6.9-2.7 1.8-1.8 2.7-4.1 2.7-6.8 0-5.2-3.5-7.8-10.5-7.8H530l2.4-26.3H563v8.5h-21.6z"/></g><g id="XMLID_60_"><path id="XMLID_410_" class="st6" d="M502.3 756.7c0 1.1-.3 2-.9 2.8-.6.8-1.5 1.3-2.7 1.6l4.2 6.3h-3.7l-3.4-6.1h-2.2v6.1h-2.8v-15.6h5.8c1.8 0 3.3.4 4.3 1.3.9.9 1.4 2.1 1.4 3.6zm-6.1 2.8c1 0 1.8-.2 2.4-.7.5-.5.8-1.1.8-1.9 0-.8-.2-1.4-.7-1.9-.5-.5-1.2-.7-2.2-.7h-2.9v5.2z"/><path id="XMLID_413_" class="st6" d="M515.7 753.2c1 .9 1.5 2.1 1.5 3.7s-.5 2.8-1.5 3.7c-1 .9-2.4 1.3-4.1 1.3H509v5.7h-2.9V752h5.5c1.7-.1 3.1.3 4.1 1.2zm-4.1 6.1c.9 0 1.5-.2 2-.7.4-.5.7-1.1.7-1.8s-.2-1.3-.7-1.8c-.4-.5-1.1-.7-2-.7H509v5z"/><path id="XMLID_416_" class="st6" d="m524.1 751.9 4.3 9.3 4.3-9.3h3.9v15.6h-2.9v-11.8l-4.4 10.1h-1.8l-4.6-10.5v12.2h-2.8v-15.6z"/></g></g><g id="XMLID_4_"><g id="XMLID_136_"><g id="XMLID_135_"><path id="XMLID_409_" class="st4" d="M1094 744.2h-14.9c-.8 0-1.5-.7-1.5-1.5s.7-1.5 1.5-1.5h14.9c.8 0 1.5.7 1.5 1.5 0 .9-.7 1.5-1.5 1.5z"/></g><g id="XMLID_134_"><path id="XMLID_408_" class="st4" d="M1105.6 678.5c-.2 0-.3 0-.5-.1l-14-5.1c-.8-.3-1.2-1.1-.9-1.9.3-.8 1.1-1.2 1.9-.9l14 5.1c.8.3 1.2 1.1.9 1.9-.2.6-.8 1-1.4 1z"/></g><g id="XMLID_133_"><path id="XMLID_407_" class="st4" d="M1139 620.6c-.3 0-.7-.1-1-.4l-11.4-9.6c-.6-.5-.7-1.5-.2-2.1.5-.6 1.5-.7 2.1-.2l11.4 9.6c.6.5.7 1.5.2 2.1-.2.4-.7.6-1.1.6z"/></g><g id="XMLID_132_"><path id="XMLID_406_" class="st4" d="M1190.2 577.7c-.5 0-1-.3-1.3-.8l-7.4-12.9c-.4-.7-.2-1.6.5-2 .7-.4 1.6-.2 2 .5l7.4 12.9c.4.7.2 1.6-.5 2-.2.2-.5.3-.7.3z"/></g><g id="XMLID_131_"><path id="XMLID_405_" class="st4" d="M1253 554.8c-.7 0-1.3-.5-1.5-1.2l-2.6-14.7c-.1-.8.4-1.6 1.2-1.7.8-.1 1.6.4 1.7 1.2l2.6 14.7c.1.8-.4 1.6-1.2 1.7h-.2z"/></g><g id="XMLID_130_"><path id="XMLID_404_" class="st4" d="M1319.8 554.8h-.3c-.8-.1-1.4-.9-1.2-1.7l2.6-14.7c.1-.8.9-1.4 1.7-1.2.8.1 1.4.9 1.2 1.7l-2.6 14.7c-.1.7-.7 1.2-1.4 1.2z"/></g><g id="XMLID_129_"><path id="XMLID_403_" class="st3" d="M1382.5 577.7c-.3 0-.5-.1-.7-.2-.7-.4-1-1.3-.5-2l7.4-12.9c.4-.7 1.3-1 2-.5.7.4 1 1.3.5 2l-7.4 12.9c-.3.4-.8.7-1.3.7z"/></g><g id="XMLID_128_"><path id="XMLID_402_" class="st3" d="M1433.7 620.6c-.4 0-.9-.2-1.2-.5-.5-.6-.4-1.6.2-2.1l11.4-9.6c.6-.5 1.6-.4 2.1.2.5.6.4 1.6-.2 2.1l-11.4 9.6c-.2.2-.6.3-.9.3z"/></g><g id="XMLID_127_"><path id="XMLID_401_" class="st3" d="M1467.1 678.5c-.6 0-1.2-.4-1.4-1-.3-.8.1-1.6.9-1.9l14-5.1c.8-.3 1.6.1 1.9.9.3.8-.1 1.6-.9 1.9l-14 5.1c-.2 0-.3.1-.5.1z"/></g><g id="XMLID_97_"><path id="XMLID_400_" class="st3" d="M1493.6 744.2h-14.9c-.8 0-1.5-.7-1.5-1.5s.7-1.5 1.5-1.5h14.9c.8 0 1.5.7 1.5 1.5 0 .9-.7 1.5-1.5 1.5z"/></g></g><g id="XMLID_44_"><g id="XMLID_45_"><path id="XMLID_399_" class="st3" d="M1465.8 849.4c-.5 0-1-.1-1.5-.4l-18.1-10.5c-1.4-.8-1.9-2.7-1.1-4.1.8-1.4 2.7-1.9 4.1-1.1l18.1 10.5c1.4.8 1.9 2.7 1.1 4.1-.6.9-1.6 1.5-2.6 1.5z"/></g><g id="XMLID_46_"><path id="XMLID_398_" class="st3" d="M1490.4 781.7h-.5l-20.6-3.6c-1.6-.3-2.7-1.8-2.4-3.5.3-1.6 1.8-2.7 3.5-2.4l20.6 3.6c1.6.3 2.7 1.8 2.4 3.5-.3 1.4-1.5 2.4-3 2.4z"/></g><g id="XMLID_47_"><path id="XMLID_397_" class="st3" d="M1469.8 713.4c-1.4 0-2.7-1-3-2.5-.3-1.6.8-3.2 2.4-3.5l20.6-3.6c1.6-.3 3.2.8 3.5 2.4.3 1.6-.8 3.2-2.4 3.5l-20.6 3.6c-.2.1-.4.1-.5.1z"/></g><g id="XMLID_48_"><path id="XMLID_396_" class="st3" d="M1447.7 652.6c-1 0-2-.5-2.6-1.5-.8-1.4-.3-3.3 1.1-4.1l18.1-10.5c1.4-.8 3.3-.3 4.1 1.1.8 1.4.3 3.3-1.1 4.1l-18.1 10.5c-.5.3-1 .4-1.5.4z"/></g><g id="XMLID_49_"><path id="XMLID_395_" class="st3" d="M1406.1 603.1c-.7 0-1.4-.2-1.9-.7-1.3-1.1-1.4-3-.4-4.2l13.5-16.1c1.1-1.3 3-1.4 4.2-.4 1.3 1.1 1.4 3 .4 4.2l-13.5 16.1c-.6.7-1.5 1.1-2.3 1.1z"/></g><g id="XMLID_50_"><path id="XMLID_394_" class="st3" d="M1350.1 570.7c-.3 0-.7-.1-1-.2-1.6-.6-2.4-2.3-1.8-3.8l7.2-19.7c.6-1.6 2.3-2.4 3.8-1.8 1.6.6 2.4 2.3 1.8 3.8l-7.2 19.7c-.5 1.3-1.6 2-2.8 2z"/></g><g id="XMLID_51_"><path id="XMLID_393_" class="st4" d="M1286.4 559.5c-1.7 0-3-1.3-3-3v-21c0-1.7 1.3-3 3-3s3 1.3 3 3v21c0 1.6-1.4 3-3 3z"/></g><g id="XMLID_52_"><path id="XMLID_392_" class="st4" d="M1222.7 570.7c-1.2 0-2.4-.8-2.8-2l-7.2-19.7c-.6-1.6.2-3.3 1.8-3.8 1.6-.6 3.3.2 3.8 1.8l7.2 19.7c.6 1.6-.2 3.3-1.8 3.8-.4.2-.7.2-1 .2z"/></g><g id="XMLID_53_"><path id="XMLID_391_" class="st4" d="M1166.6 603.1c-.9 0-1.7-.4-2.3-1.1l-13.5-16.1c-1.1-1.3-.9-3.2.4-4.2 1.3-1.1 3.2-.9 4.2.4l13.5 16.1c1.1 1.3.9 3.2-.4 4.2-.5.4-1.2.7-1.9.7z"/></g><g id="XMLID_54_"><path id="XMLID_390_" class="st4" d="M1125 652.6c-.5 0-1-.1-1.5-.4l-18.2-10.5c-1.4-.8-1.9-2.7-1.1-4.1.8-1.4 2.7-1.9 4.1-1.1l18.2 10.5c1.4.8 1.9 2.7 1.1 4.1-.5 1-1.5 1.5-2.6 1.5z"/></g><g id="XMLID_55_"><path id="XMLID_389_" class="st4" d="M1102.9 713.4h-.5l-20.6-3.6c-1.6-.3-2.7-1.8-2.4-3.5.3-1.6 1.9-2.7 3.5-2.4l20.6 3.6c1.6.3 2.7 1.8 2.4 3.5-.3 1.4-1.5 2.4-3 2.4z"/></g><g id="XMLID_56_"><path id="XMLID_388_" class="st4" d="M1082.3 781.7c-1.4 0-2.7-1-3-2.5-.3-1.6.8-3.2 2.4-3.5l20.6-3.6c1.6-.3 3.2.8 3.5 2.4.3 1.6-.8 3.2-2.4 3.5l-20.6 3.6c-.2.1-.3.1-.5.1z"/></g><g id="XMLID_57_"><path id="XMLID_387_" class="st4" d="M1106.9 849.4c-1 0-2-.5-2.6-1.5-.8-1.4-.3-3.3 1.1-4.1l18.2-10.5c1.4-.8 3.3-.3 4.1 1.1.8 1.4.3 3.3-1.1 4.1l-18.2 10.5c-.5.2-1 .4-1.5.4z"/></g></g><g id="XMLID_6_"><path id="XMLID_9_" class="st3" d="m1238.8 658-5.2 3-35.6-67.5z"/></g><g id="XMLID_138_"><path id="XMLID_386_" class="st4" d="M1091.6 814.5c-.6 0-1.2-.4-1.4-.9-.3-.8.1-1.6.8-2l12.1-4.9c.8-.3 1.6.1 2 .8.3.8-.1 1.6-.8 2l-12.1 4.9c-.2.1-.4.1-.6.1z"/></g><g id="XMLID_139_"><path id="XMLID_385_" class="st3" d="M1481.1 814.5c-.2 0-.4 0-.6-.1l-12.1-4.9c-.8-.3-1.1-1.2-.8-2 .3-.8 1.2-1.1 2-.8l12.1 4.9c.8.3 1.1 1.2.8 2-.3.5-.8.9-1.4.9z"/></g><g id="XMLID_59_"><path id="XMLID_382_" class="st5" d="M1367.8 907h-162.9c-40.5 0-78.5-21.2-99.2-55.4-19.9-32.8-30.4-70.6-30.4-109.1 0-56.4 21.9-109.3 61.8-149.2 39.8-39.9 92.8-61.8 149.2-61.8h.1c56.5 0 109.5 21.9 149.3 61.7 39.8 39.8 61.7 92.8 61.7 149.4 0 37.9-10.2 75.1-29.4 107.5-20.9 35.1-59.3 56.9-100.2 56.9zm-81.4-367.5c-.1 0-.1 0 0 0-112 0-203 91.1-203 203 0 37.1 10.1 73.4 29.2 105 19.2 31.8 54.6 51.5 92.3 51.5h162.9c38.1 0 73.9-20.3 93.3-53.1 18.5-31.2 28.3-66.9 28.3-103.4 0-54.4-21.1-105.4-59.4-143.7-38.3-38.2-89.3-59.3-143.6-59.3z"/></g><g id="XMLID_146_"><path id="XMLID_379_" class="st5" d="M1367.8 795h-162.9c-1.3 0-2.4-.5-3-1l-.3-.2-.2-.3c-9.2-15.3-14.1-32.9-14.1-51 0-54.6 44.4-99 99-99 26.6 0 51.5 10.3 70.2 28.9 18.6 18.6 28.9 43.5 28.9 70.1 0 17.8-4.7 35.2-13.7 50.4-.8 1.2-2.4 2.1-3.9 2.1zm-163.2-4c.1 0 .2.1.3.1h162.9c.1 0 .4-.1.4-.2 8.6-14.5 13.1-31.2 13.1-48.3 0-25.5-9.8-49.4-27.7-67.3s-41.8-27.7-67.3-27.7c-52.4 0-95 42.6-95 95 0 17.1 4.6 33.8 13.3 48.4z"/></g><g id="XMLID_143_"><path id="XMLID_298_" class="st6" d="M1268 686.5v32.3h8.9v7.9h-8.9V738h-9.2v-11.3h-25.9v-7l26.1-33.3h9zm-24.1 33.3h15.3v-19.5z"/><path id="XMLID_376_" class="st6" d="M1295.2 707c2.8-.5 5.5-.7 8.1-.7 5.3 0 9.5 1.3 12.7 3.8 3.1 2.5 4.7 6.2 4.7 11 0 5.2-1.8 9.5-5.3 12.8-3.7 3.5-8.4 5.3-14.1 5.3-5.6 0-10.1-1.4-13.5-4.2-3.5-2.9-5.3-7-5.4-12.1h9.5c0 2.7.9 4.6 2.7 5.9 1.8 1.3 4.1 1.9 6.8 1.9 2.8 0 5.1-.9 6.9-2.7 1.8-1.8 2.7-4.1 2.7-6.8 0-5.2-3.5-7.8-10.5-7.8H1285l2.4-26.3h30.6v8.5h-21.6z"/></g><g id="XMLID_140_"><path id="XMLID_222_" class="st6" d="m1267.5 751.9 4.3 9.3 4.3-9.3h3.9v15.6h-2.9v-11.8l-4.4 10.1h-1.8l-4.6-10.5v12.2h-2.8v-15.6z"/><path id="XMLID_225_" class="st6" d="M1293.9 753.2c1 .9 1.5 2.1 1.5 3.7s-.5 2.8-1.5 3.7c-1 .9-2.4 1.3-4.1 1.3h-2.6v5.7h-2.9V752h5.5c1.8-.1 3.1.3 4.1 1.2zm-4.1 6.1c.9 0 1.5-.2 2-.7.4-.5.7-1.1.7-1.8s-.2-1.3-.7-1.8c-.4-.5-1.1-.7-2-.7h-2.6v5z"/><path id="XMLID_228_" class="st6" d="M1301.1 751.9v6.5h6.8v-6.5h2.8v15.6h-2.8v-6.6h-6.8v6.6h-2.8v-15.6z"/></g></g><g id="XMLID_10_"><path class="st7" d="m1174.8 492.1-35.3-24.8c-1-.7-2.4 0-2.4 1.2v6.3c0 .8-.7 1.5-1.5 1.5h-45c-.8 0-1.5.7-1.5 1.5v31c0 .8.7 1.5 1.5 1.5h45c.8 0 1.5.7 1.5 1.5v6.3c0 1.2 1.4 1.9 2.4 1.2l35.3-24.8c.9-.5.9-1.8 0-2.4z" id="path944"/></g><g id="XMLID_11_"><path class="st8" d="m625.2 494.6 35.3 24.8c1 .7 2.4 0 2.4-1.2v-6.3c0-.8.7-1.5 1.5-1.5h45c.8 0 1.5-.7 1.5-1.5v-31c0-.8-.7-1.5-1.5-1.5h-45c-.8 0-1.5-.7-1.5-1.5v-6.3c0-1.2-1.4-1.9-2.4-1.2l-35.3 24.8c-.9.5-.9 1.8 0 2.4z" id="path947"/></g><g id="XMLID_12_"><g id="XMLID_13_"><path id="XMLID_14_" class="st9" d="m819.3 652.8 95.8 17.4c-.1-36.5 5.5-72.4 12.8-103.6h-108z"/></g><g id="XMLID_98_"><path id="XMLID_220_" class="st10" d="m930.6 690.3 114.9 20.9V694l-115.4-21c-.4-36.9 5.3-73.7 13.2-106.4h-15.5c-7.3 31.2-12.9 67.2-12.8 103.6l-95.8-17.4-.1 17.3 96.3 17.5c1.9 46.6 9.8 87.6 18.3 119.5h15.7c-8.4-30.9-16.6-71.2-18.8-116.8Z"/></g><g id="XMLID_144_"><path id="XMLID_219_" class="st10" d="M974.6 471.5c-5.3-.5-10.5-.9-15.8-1.3-4.9 11.8-10.8 27.3-16.8 45.4-3 9.3-6.2 19.7-9.2 31h15.6c8.9-31.7 19.1-58.2 26.2-75.1z"/></g><g id="XMLID_159_"><path id="XMLID_218_" class="st10" d="m799.2 666.4.1-17.2-44.8-8.2v17.3z"/></g><g id="XMLID_160_"><path id="XMLID_40_" d="M819.9 566.6H1045.5v-20H831.2l64.6-78.5c-8.8 0-17.6.2-26.4.6l-64.2 77.9h-50.8v20h45.4l-.6 82.6-.1 17.3-1 140.6h20l1-137 .1-17.3z" style="fill:#3b434d"/></g></g><g id="XMLID_15_"><g id="XMLID_16_"><path id="XMLID_17_" class="st9" d="M1045.5 742.6V508c0-15.7-11.6-29.1-27.1-31.3-78.9-11.4-157.8-11.4-236.7 0-15.6 2.3-27.1 15.6-27.1 31.3v234.6z"/></g></g><g id="XMLID_141_"><path id="XMLID_19_" class="st5" d="M754.5 775.4c0 17.5 14.2 31.6 31.6 31.6h227.7c17.5 0 31.6-14.2 31.6-31.6v-32.8h-291v32.8z"/></g><g id="XMLID_18_"><path id="XMLID_215_" class="st5" d="M1013.9 809H786.1c-18.5 0-33.6-15.1-33.6-33.6V508c0-16.6 12.4-30.9 28.9-33.3a827.54 827.54 0 0 1 237.3 0c16.4 2.4 28.9 16.7 28.9 33.3v267.4c-.1 18.6-15.2 33.6-33.7 33.6zM900 470.1c-39.4 0-78.9 2.8-118.1 8.5-14.5 2.1-25.4 14.7-25.4 29.3v267.4c0 16.3 13.3 29.6 29.6 29.6h227.7c16.3 0 29.6-13.3 29.6-29.6V508c0-14.6-10.9-27.2-25.4-29.3-39.1-5.7-78.6-8.6-118-8.6z"/></g><g id="XMLID_20_"><path class="st12" d="m809.6 624.2-6.3 8.9c-.2.3 0 .6.3.6h1.6c.2 0 .4.2.4.4v11.4c0 .2.2.4.4.4h7.8c.2 0 .4-.2.4-.4v-11.4c0-.2.2-.4.4-.4h1.6c.3 0 .5-.3.3-.6l-6.3-8.9c-.2-.2-.5-.2-.6 0z" id="path968"/></g><g id="XMLID_21_"><g id="XMLID_170_"><path id="XMLID_23_" class="st6" d="M795.5 777.5h6.2v1.2h-2.4v6.6h-1.4v-6.6h-2.4z"/></g><g id="XMLID_172_"><path id="XMLID_24_" class="st6" d="M804.2 777.5v4.8c0 .6.2 1.1.5 1.4.3.3.7.4 1.3.4.5 0 .9-.1 1.3-.4.3-.3.5-.7.5-1.4v-4.8h1.4v4.8c0 1-.3 1.8-.8 2.3-.6.5-1.3.8-2.3.8-1 0-1.8-.3-2.3-.8-.6-.5-.8-1.3-.8-2.3v-4.8z"/></g><g id="XMLID_174_"><path id="XMLID_25_" class="st6" d="M817 779.8c0 .6-.2 1-.5 1.4-.3.4-.8.7-1.3.8l2.1 3.2h-1.8l-1.7-3h-1.1v3h-1.4v-7.8h2.9c.9 0 1.6.2 2.1.7.4.4.7 1 .7 1.7zm-3.1 1.5c.5 0 .9-.1 1.2-.4.3-.2.4-.5.4-.9s-.1-.7-.4-.9c-.2-.2-.6-.4-1.1-.4h-1.5v2.6z"/></g><g id="XMLID_177_"><path id="XMLID_26_" class="st6" d="m820.4 777.5 3.4 5.5v-5.5h1.4v7.8h-1.4l-3.5-5.7v5.7h-1.4v-7.8z"/></g><g id="XMLID_179_"><path id="XMLID_27_" class="st6" d="M836.3 779.8c0 .6-.2 1-.5 1.4-.3.4-.8.7-1.3.8l2.1 3.2h-1.8l-1.7-3H832v3h-1.4v-7.8h2.9c.9 0 1.6.2 2.1.7.5.4.7 1 .7 1.7zm-3 1.5c.5 0 .9-.1 1.2-.4.3-.2.4-.5.4-.9s-.1-.7-.4-.9c-.2-.2-.6-.4-1.1-.4H832v2.6z"/></g><g id="XMLID_182_"><path id="XMLID_28_" class="st6" d="M838.3 777.5h1.4v7.8h-1.4z"/></g><g id="XMLID_184_"><path id="XMLID_30_" class="st6" d="M846.7 784c-.3.9-1 1.4-1.9 1.4-1 0-1.8-.4-2.4-1.1-.7-.8-1-1.7-1-2.9s.4-2.2 1.1-3c.7-.7 1.6-1.1 2.6-1.1.7 0 1.3.2 1.8.5s.9.8 1.2 1.5l-1.5.3c-.4-.7-1-1-1.6-1-.6 0-1.1.3-1.5.8-.4.5-.6 1.2-.6 2.1 0 .8.2 1.5.6 2 .4.5.8.7 1.4.7.5 0 .9-.2 1.3-.5.3-.3.5-.8.5-1.4h-1.8v-.9h3.1v4h-1.2z"/></g><g id="XMLID_186_"><path id="XMLID_31_" class="st6" d="M851.5 777.5v3.3h3.4v-3.3h1.4v7.8h-1.4V782h-3.4v3.3H850v-7.8z"/></g><g id="XMLID_188_"><path id="XMLID_38_" class="st6" d="M857.5 777.5h6.2v1.2h-2.4v6.6h-1.4v-6.6h-2.4z"/></g></g><g id="XMLID_149_"><g id="XMLID_151_"><path id="XMLID_63_" class="st6" d="M798 791.8c.4-.1.8-.1 1.2-.1.8 0 1.5.2 1.9.6.5.4.7.9.7 1.7 0 .8-.3 1.4-.8 2-.6.5-1.3.8-2.1.8-.9 0-1.5-.2-2.1-.6-.5-.4-.8-1.1-.8-1.8h1.5c0 .4.1.7.4.9.3.2.6.3 1 .3s.8-.1 1.1-.4c.3-.3.4-.6.4-1 0-.8-.5-1.2-1.6-1.2h-2.4l.4-4h4.7v1.3h-3.3z"/></g><g id="XMLID_165_"><path id="XMLID_72_" class="st6" d="M811.7 791.8c.4-.8 1-1.3 2-1.3.7 0 1.2.2 1.6.7.4.4.6 1.1.6 1.9v3.4h-1.4v-3.4c0-.4-.1-.8-.3-1-.2-.2-.5-.3-.9-.3s-.7.2-.9.5c-.2.3-.4.8-.4 1.5v2.7h-1.4v-3.4c0-.4-.1-.8-.3-1-.2-.2-.5-.3-.9-.3s-.7.2-1 .5c-.3.3-.4.8-.4 1.5v2.7h-1.4v-5.8h1.2l.2 1c.4-.8 1-1.2 1.8-1.2.5 0 .9.1 1.2.3.3.3.6.6.7 1z"/></g><g id="XMLID_167_"><path id="XMLID_77_" class="st6" d="M817.9 788.8c0-.3.1-.5.2-.6.2-.1.4-.2.6-.2.3 0 .5.1.6.2.2.1.2.4.2.6 0 .3-.1.5-.2.6-.2.1-.4.2-.6.2-.3 0-.5-.1-.6-.2-.1-.2-.2-.4-.2-.6zm.1 1.9h1.4v5.8H818Z"/></g></g><g id="XMLID_164_"><path id="XMLID_62_" class="st12" d="m822.2 758.3-8-5.6c-.2-.2-.5 0-.5.3v1.4c0 .2-.2.3-.3.3h-5.3c-5.2 0-9.5 4.3-9.5 9.5v6c0 .4.3.7.7.7h6.4c.4 0 .7-.3.7-.7v-5.7c0-1.1.9-2.1 2.1-2.1h4.9c.2 0 .3.2.3.3v1.4c0 .3.3.4.5.3l8-5.6c.2 0 .2-.3 0-.5z"/></g><g id="XMLID_22_"><path id="XMLID_211_" class="st5" d="M1047.5 890.1h-295v-37h295zm-291-4h287v-29h-287z"/></g><g id="XMLID_191_"><g id="XMLID_190_"><path class="st7" id="rect1001" d="M805.6 860h8.8v23h-8.8z"/></g><g id="XMLID_192_"><path class="st7" id="rect1004" d="M820.6 860h8.8v23h-8.8z"/></g><g id="XMLID_193_"><path class="st7" id="rect1007" d="M835.6 860h8.8v23h-8.8z"/></g><g id="XMLID_194_"><path class="st7" id="rect1010" d="M850.6 860h8.8v23h-8.8z"/></g><g id="XMLID_195_"><path class="st7" id="rect1013" d="M865.6 860h8.8v23h-8.8z"/></g><g id="XMLID_196_"><path class="st7" id="rect1016" d="M880.6 860h8.8v23h-8.8z"/></g><g id="XMLID_197_"><path class="st7" id="rect1019" d="M895.6 860h8.8v23h-8.8z"/></g><g id="XMLID_198_"><path class="st7" id="rect1022" d="M910.6 860h8.8v23h-8.8z"/></g><g id="XMLID_199_"><path class="st7" id="rect1025" d="M925.6 860h8.8v23h-8.8z"/></g><g id="XMLID_200_"><path class="st8" id="rect1028" d="M940.6 860h8.8v23h-8.8z"/></g><g id="XMLID_201_"><path class="st8" id="rect1031" d="M955.6 860h8.8v23h-8.8z"/></g><g id="XMLID_202_"><path class="st8" id="rect1034" d="M970.6 860h8.8v23h-8.8z"/></g><g id="XMLID_203_"><path class="st8" id="rect1037" d="M985.6 860h8.8v23h-8.8z"/></g></g><g id="XMLID_204_"><path id="XMLID_208_" class="st6" d="M770.7 861.7H783v3h-8.8v5h8.3v3h-8.3v5h8.8v3h-12.3z"/></g><g id="XMLID_206_"><path id="XMLID_163_" class="st6" d="M1021.7 861.7h12v3h-8.5v5h7.8v3h-7.8v8.1h-3.5z"/></g><g id="XMLID_94_"><path id="XMLID_152_" class="st6" d="M502 860.8c-.1 1.1-.5 2.1-1.1 2.9-.6.8-1.5 1.3-2.6 1.7l3.2 6.3H498l-2.5-6.1h-1.9l-.6 6.1h-2.6l1.5-15.6h5.2c1.7 0 3 .4 3.8 1.3.9.7 1.2 1.9 1.1 3.4zm-5.8 2.8c.9 0 1.7-.2 2.2-.7.5-.5.8-1.1.9-1.8 0-.8-.1-1.4-.5-1.9s-1-.7-1.8-.7h-2.6l-.5 5.1z"/><path id="XMLID_155_" class="st6" d="M514.5 857.2c.8.9 1.1 2.1 1 3.7-.2 1.6-.7 2.8-1.7 3.7-1 .9-2.3 1.3-3.9 1.3h-2.3l-.5 5.6h-2.7l1.5-15.6h5c1.6.1 2.8.5 3.6 1.3zm-4.3 6.2c.8 0 1.4-.2 1.8-.7.4-.4.7-1 .8-1.8.1-.7-.1-1.3-.4-1.8-.4-.5-.9-.7-1.7-.7h-2.3l-.5 4.9h2.3z"/><path id="XMLID_158_" class="st6" d="m522.3 856 2.9 9.2 4.6-9.2h3.6l-1.5 15.6h-2.7l1.1-11.8-4.8 10.1h-1.7l-3-10.5-1.1 12.1H517l1.5-15.6h3.8z"/></g><g id="XMLID_147_"><path id="XMLID_90_" class="st6" d="m1268.4 856 2.9 9.2 4.6-9.2h3.6l-1.5 15.6h-2.7l1.1-11.8-4.8 10.1h-1.7l-3-10.5-1.1 12.1h-2.6l1.5-15.6h3.7z"/><path id="XMLID_99_" class="st6" d="M1292.1 857.2c.8.9 1.1 2.1 1 3.7-.2 1.6-.7 2.8-1.7 3.7-1 .9-2.3 1.3-3.9 1.3h-2.3l-.5 5.6h-2.7l1.5-15.6h5c1.6.1 2.8.5 3.6 1.3zm-4.3 6.2c.8 0 1.4-.2 1.8-.7.4-.4.7-1 .8-1.8.1-.7-.1-1.3-.4-1.8-.4-.5-.9-.7-1.7-.7h-2.3l-.5 4.9h2.3z"/><path id="XMLID_145_" class="st6" d="m1298.8 856-.6 6.5h6.1l.6-6.5h2.6l-1.5 15.6h-2.6l.6-6.6h-6l-.6 6.6h-2.6l1.5-15.6z"/></g></g></svg>