<?xml version="1.0" encoding="UTF-8" standalone="no"?>
<!-- Generator: Adobe Illustrator 19.0.0, SVG Export Plug-In . SVG Version: 6.00 Build 0)  -->

<svg
   version="1.1"
   id="Layer_1"
   x="0px"
   y="0px"
   viewBox="0 0 1566.5852 640.59998"
   xml:space="preserve"
   sodipodi:docname="Car dashboard ui.svg"
   width="1566.5852"
   height="640.59998"
   inkscape:version="1.1.1 (c3084ef, 2021-09-22)"
   xmlns:inkscape="http://www.inkscape.org/namespaces/inkscape"
   xmlns:sodipodi="http://sodipodi.sourceforge.net/DTD/sodipodi-0.dtd"
   xmlns="http://www.w3.org/2000/svg"
   xmlns:svg="http://www.w3.org/2000/svg"><defs
   id="defs1057" /><sodipodi:namedview
   id="namedview1055"
   pagecolor="#505050"
   bordercolor="#ffffff"
   borderopacity="1"
   inkscape:pageshadow="0"
   inkscape:pageopacity="0"
   inkscape:pagecheckerboard="1"
   showgrid="false"
   fit-margin-top="0"
   fit-margin-left="0"
   fit-margin-right="0"
   fit-margin-bottom="0"
   inkscape:zoom="0.46142857"
   inkscape:cx="189.62848"
   inkscape:cy="338.0805"
   inkscape:window-width="1820"
   inkscape:window-height="816"
   inkscape:window-x="473"
   inkscape:window-y="184"
   inkscape:window-maximized="0"
   inkscape:current-layer="Layer_1" />
<style
   type="text/css"
   id="style824">
	.st0{fill:#131F38;}
	.st1{fill:#080B12;}
	.st2{fill:#0E2759;}
	.st3{fill:#F23841;}
	.st4{fill:#84D4F6;}
	.st5{fill:#0D76A8;}
	.st6{fill:#FFFFFF;}
	.st7{fill:#FC6E27;}
	.st8{fill:#121E38;}
	.st9{fill:none;}
	.st10{fill:#252A30;}
	.st11{fill:#3B434D;}
	.st12{fill:#D9F4FF;}
</style>

<g
   id="XMLID_1_"
   transform="translate(-116.75737,-388.7)">
	<g
   id="XMLID_2_">
		<path
   id="XMLID_3_"
   class="st1"
   d="m 900,388.7 c -401.7,0 -640,77.9 -741.5,121.2 -33.2,14.2 -49.8,51.7 -37.9,85.8 l 78.2,224.7 c 43.5,125 161.4,208.9 293.8,208.9 h 814.9 c 132.4,0 250.3,-83.8 293.8,-208.9 l 78.2,-224.7 c 11.9,-34.1 -4.7,-71.6 -37.9,-85.8 C 1540,466.6 1301.7,388.7 900,388.7 Z" />
	</g>
	<g
   id="XMLID_207_">
		<path
   id="XMLID_445_"
   class="st2"
   d="M 1307.4,1018.3 H 492.6 c -127.6,0 -241.5,-81 -283.4,-201.5 L 131,592.1 c -9.9,-28.5 4,-60.2 31.8,-72 49.3,-21 133.7,-51.3 256,-76.2 144.1,-29.3 306,-44.1 481.1,-44.1 175.1,0 337,14.8 481.1,44.1 122.3,24.9 206.8,55.2 256,76.2 27.8,11.9 41.8,43.5 31.8,72 l -78.2,224.7 c -41.7,120.5 -155.6,201.5 -283.2,201.5 z M 900,407.7 c -174.6,0 -335.9,14.8 -479.5,44 -121.7,24.7 -205.6,54.8 -254.5,75.7 -23.9,10.2 -36,37.5 -27.4,62.1 l 78.2,224.7 c 40.8,117.3 151.6,196.1 275.8,196.1 h 814.9 c 124.2,0 235,-78.8 275.8,-196.1 l 78.2,-224.7 c 8.6,-24.6 -3.5,-51.9 -27.4,-62.1 -48.9,-20.9 -132.8,-51 -254.5,-75.7 -143.7,-29.2 -305,-44 -479.6,-44 z" />
	</g>
	<g
   id="XMLID_8_">
		<g
   id="XMLID_32_">
			<g
   id="XMLID_33_">
				<path
   id="XMLID_444_"
   class="st3"
   d="m 713.6,799.4 c -0.3,0 -0.5,0 -0.8,-0.1 l -25.5,-6.8 c -1.6,-0.4 -2.6,-2.1 -2.1,-3.7 0.4,-1.6 2.1,-2.6 3.7,-2.1 l 25.5,6.8 c 1.6,0.4 2.6,2.1 2.1,3.7 -0.4,1.3 -1.6,2.2 -2.9,2.2 z" />
			</g>
			<g
   id="XMLID_35_">
				<path
   id="XMLID_443_"
   class="st3"
   d="m 688.1,698.9 c -1.3,0 -2.5,-0.9 -2.9,-2.2 -0.4,-1.6 0.5,-3.2 2.1,-3.7 l 25.5,-6.8 c 1.6,-0.4 3.2,0.5 3.7,2.1 0.4,1.6 -0.5,3.2 -2.1,3.7 l -25.5,6.8 c -0.3,0.1 -0.5,0.1 -0.8,0.1 z" />
			</g>
			<g
   id="XMLID_36_">
				<path
   id="XMLID_442_"
   class="st3"
   d="m 641.3,617.9 c -0.8,0 -1.5,-0.3 -2.1,-0.9 -1.2,-1.2 -1.2,-3.1 0,-4.2 l 18.7,-18.7 c 1.2,-1.2 3.1,-1.2 4.2,0 1.2,1.2 1.2,3.1 0,4.2 L 643.4,617 c -0.5,0.6 -1.3,0.9 -2.1,0.9 z" />
			</g>
			<g
   id="XMLID_37_">
				<path
   id="XMLID_441_"
   class="st3"
   d="m 560.3,571.1 c -0.3,0 -0.5,0 -0.8,-0.1 -1.6,-0.4 -2.6,-2.1 -2.1,-3.7 l 6.8,-25.5 c 0.4,-1.6 2.1,-2.5 3.7,-2.1 1.6,0.4 2.6,2.1 2.1,3.7 l -6.8,25.5 c -0.4,1.3 -1.6,2.2 -2.9,2.2 z" />
			</g>
			<g
   id="XMLID_39_">
				<path
   id="XMLID_440_"
   class="st4"
   d="m 466.6,571.1 c -1.3,0 -2.5,-0.9 -2.9,-2.2 l -6.8,-25.5 c -0.4,-1.6 0.5,-3.2 2.1,-3.7 1.6,-0.4 3.2,0.5 3.7,2.1 l 6.8,25.5 c 0.4,1.6 -0.5,3.2 -2.1,3.7 -0.2,0 -0.5,0.1 -0.8,0.1 z" />
			</g>
			<g
   id="XMLID_41_">
				<path
   id="XMLID_439_"
   class="st4"
   d="m 385.6,617.9 c -0.8,0 -1.5,-0.3 -2.1,-0.9 l -18.7,-18.7 c -1.2,-1.2 -1.2,-3.1 0,-4.2 1.2,-1.2 3.1,-1.2 4.2,0 l 18.7,18.7 c 1.2,1.2 1.2,3.1 0,4.2 -0.6,0.6 -1.3,0.9 -2.1,0.9 z" />
			</g>
			<g
   id="XMLID_42_">
				<path
   id="XMLID_438_"
   class="st4"
   d="m 338.8,698.9 c -0.3,0 -0.5,0 -0.8,-0.1 L 312.5,692 c -1.6,-0.4 -2.6,-2.1 -2.1,-3.7 0.4,-1.6 2.1,-2.5 3.7,-2.1 l 25.5,6.8 c 1.6,0.4 2.6,2.1 2.1,3.7 -0.4,1.4 -1.6,2.2 -2.9,2.2 z" />
			</g>
			<g
   id="XMLID_43_">
				<path
   id="XMLID_437_"
   class="st4"
   d="m 313.3,799.4 c -1.3,0 -2.5,-0.9 -2.9,-2.2 -0.4,-1.6 0.5,-3.2 2.1,-3.7 l 25.5,-6.8 c 1.6,-0.4 3.2,0.5 3.7,2.1 0.4,1.6 -0.5,3.2 -2.1,3.7 l -25.5,6.8 c -0.3,0 -0.5,0.1 -0.8,0.1 z" />
			</g>
		</g>
		<g
   id="XMLID_5_">
			<g
   id="XMLID_61_">
				<path
   id="XMLID_436_"
   class="st4"
   d="m 324.5,744.1 h -18 c -0.8,0 -1.5,-0.7 -1.5,-1.5 0,-0.8 0.7,-1.5 1.5,-1.5 h 18 c 0.8,0 1.5,0.7 1.5,1.5 0,0.8 -0.7,1.5 -1.5,1.5 z" />
			</g>
			<g
   id="XMLID_78_">
				<path
   id="XMLID_435_"
   class="st4"
   d="m 349.9,649.5 c -0.3,0 -0.5,-0.1 -0.7,-0.2 l -15.6,-9 c -0.7,-0.4 -1,-1.3 -0.5,-2 0.4,-0.7 1.3,-1 2,-0.5 l 15.6,9 c 0.7,0.4 1,1.3 0.5,2 -0.3,0.4 -0.8,0.7 -1.3,0.7 z" />
			</g>
			<g
   id="XMLID_88_">
				<path
   id="XMLID_434_"
   class="st4"
   d="m 419.2,580.3 c -0.5,0 -1,-0.3 -1.3,-0.8 l -9,-15.6 c -0.4,-0.7 -0.2,-1.6 0.5,-2 0.7,-0.4 1.6,-0.2 2,0.5 l 9,15.6 c 0.4,0.7 0.2,1.6 -0.5,2 -0.2,0.2 -0.4,0.3 -0.7,0.3 z" />
			</g>
			<g
   id="XMLID_89_">
				<path
   id="XMLID_433_"
   class="st4"
   d="m 513.8,555 c -0.8,0 -1.5,-0.7 -1.5,-1.5 v -18 c 0,-0.8 0.7,-1.5 1.5,-1.5 0.8,0 1.5,0.7 1.5,1.5 v 18 c 0,0.9 -0.6,1.5 -1.5,1.5 z" />
			</g>
			<g
   id="XMLID_92_">
				<path
   id="XMLID_432_"
   class="st3"
   d="m 608.4,580.5 c -0.3,0 -0.5,-0.1 -0.7,-0.2 -0.7,-0.4 -1,-1.3 -0.5,-2 l 9,-15.6 c 0.4,-0.7 1.3,-1 2,-0.5 0.7,0.4 1,1.3 0.5,2 l -9,15.6 c -0.3,0.4 -0.8,0.7 -1.3,0.7 z" />
			</g>
			<g
   id="XMLID_93_">
				<path
   id="XMLID_431_"
   class="st3"
   d="m 677.6,649.8 c -0.5,0 -1,-0.3 -1.3,-0.8 -0.4,-0.7 -0.2,-1.6 0.5,-2 l 15.6,-9 c 0.7,-0.4 1.6,-0.2 2,0.5 0.4,0.7 0.2,1.6 -0.5,2 l -15.6,9 c -0.2,0.2 -0.5,0.3 -0.7,0.3 z" />
			</g>
			<g
   id="XMLID_95_">
				<path
   id="XMLID_430_"
   class="st3"
   d="m 720.9,744.4 h -18 c -0.8,0 -1.5,-0.7 -1.5,-1.5 0,-0.8 0.7,-1.5 1.5,-1.5 h 18 c 0.8,0 1.5,0.7 1.5,1.5 0,0.9 -0.7,1.5 -1.5,1.5 z" />
			</g>
		</g>
		<g
   id="XMLID_34_">
			<path
   id="XMLID_427_"
   class="st5"
   d="M 595.1,907 H 432.2 C 391.7,907 353.7,885.8 333,851.6 313.1,818.8 302.6,781 302.6,742.5 c 0,-56.4 21.9,-109.3 61.8,-149.2 39.8,-39.9 92.8,-61.8 149.2,-61.8 0,0 0.1,0 0.1,0 56.5,0 109.5,21.9 149.3,61.7 39.8,39.8 61.7,92.8 61.7,149.4 0,37.9 -10.2,75.1 -29.4,107.5 C 674.4,885.2 636,907 595.1,907 Z M 513.6,539.5 c 0,0 0,0 0,0 -112,0 -203,91.1 -203,203 0,37.1 10.1,73.4 29.2,105 19.2,31.8 54.6,51.5 92.3,51.5 H 595 c 38.1,0 73.9,-20.3 93.3,-53.1 18.5,-31.2 28.3,-66.9 28.3,-103.4 0,-54.4 -21.1,-105.4 -59.4,-143.7 C 619,560.6 568,539.5 513.6,539.5 Z" />
		</g>
		<g
   id="XMLID_73_">
			<path
   id="XMLID_7_"
   class="st3"
   d="M 427.1,698.5 360.7,657 430,693.3 c 1.5,0.8 2,2.6 1.3,4.1 -0.8,1.5 -2.6,2 -4.1,1.3 0,-0.1 -0.1,-0.1 -0.1,-0.2 z" />
		</g>
		<g
   id="XMLID_74_">
			<path
   id="XMLID_424_"
   class="st5"
   d="M 595.1,795 H 432.2 c -1.3,0 -2.4,-0.5 -3,-1 l -0.3,-0.2 -0.2,-0.3 c -9.2,-15.3 -14.1,-32.9 -14.1,-51 0,-54.6 44.4,-99 99,-99 26.6,0 51.5,10.3 70.2,28.9 18.6,18.6 28.9,43.5 28.9,70.1 0,17.8 -4.7,35.2 -13.7,50.4 -0.8,1.2 -2.4,2.1 -3.9,2.1 z m -163.2,-4 c 0.1,0 0.2,0 0.3,0 h 162.9 c 0.1,0 0.4,-0.1 0.4,-0.2 8.6,-14.5 13.1,-31.2 13.1,-48.3 0,-25.5 -9.8,-49.4 -27.7,-67.3 -17.9,-17.9 -41.8,-27.7 -67.3,-27.7 -52.4,0 -95,42.6 -95,95 0,17.2 4.6,33.9 13.3,48.5 z" />
		</g>
		<g
   id="XMLID_58_">
			<path
   id="XMLID_418_"
   class="st6"
   d="m 472.5,729.6 h 29.2 v 8.5 h -38.5 v -8.7 c 0,-6.1 2.2,-10.6 6.5,-13.4 1.5,-0.9 3.2,-1.8 5.1,-2.5 l 10.5,-4 c 2.3,-0.9 4,-2 5.1,-3.3 1.1,-1.3 1.6,-3 1.6,-5 0,-2 -0.7,-3.7 -2.1,-5 -1.4,-1.3 -3.4,-2 -6.1,-2 -2.6,0 -4.8,0.6 -6.5,1.9 -1.7,1.3 -2.7,3.1 -3,5.6 H 464 c 0.1,-5 2,-8.9 5.7,-11.7 3.4,-2.6 8,-3.9 13.8,-3.9 5.3,0 9.7,1.4 13.1,4.2 3.5,2.9 5.3,6.5 5.3,10.8 0,4.2 -1.1,7.6 -3.2,10.2 -2.1,2.5 -5.4,4.7 -9.9,6.4 l -10.6,4.1 c -2,0.8 -3.5,1.7 -4.4,2.6 -0.9,1 -1.4,2.2 -1.4,3.7 v 1.5 z" />
			<path
   id="XMLID_420_"
   class="st6"
   d="m 509.8,737.1 c -1.2,-1.2 -1.8,-2.6 -1.8,-4.4 0,-1.8 0.6,-3.3 1.8,-4.5 1.2,-1.2 2.8,-1.8 4.6,-1.8 1.9,0 3.5,0.6 4.7,1.8 1.3,1.2 1.9,2.7 1.9,4.5 0,1.8 -0.6,3.3 -1.9,4.4 -1.3,1.2 -2.8,1.7 -4.7,1.7 -1.9,0 -3.4,-0.6 -4.6,-1.7 z" />
			<path
   id="XMLID_422_"
   class="st6"
   d="m 540.2,707 c 2.8,-0.5 5.5,-0.7 8.1,-0.7 5.3,0 9.5,1.3 12.7,3.8 3.1,2.5 4.7,6.2 4.7,11 0,5.2 -1.8,9.5 -5.3,12.8 -3.7,3.5 -8.4,5.3 -14.1,5.3 -5.6,0 -10.1,-1.4 -13.5,-4.2 -3.5,-2.9 -5.3,-7 -5.4,-12.1 h 9.5 c 0,2.7 0.9,4.6 2.7,5.9 1.8,1.3 4.1,1.9 6.8,1.9 2.8,0 5.1,-0.9 6.9,-2.7 1.8,-1.8 2.7,-4.1 2.7,-6.8 0,-5.2 -3.5,-7.8 -10.5,-7.8 H 530 l 2.4,-26.3 H 563 v 8.5 h -21.6 z" />
		</g>
		<g
   id="XMLID_60_">
			<path
   id="XMLID_410_"
   class="st6"
   d="m 502.3,756.7 c 0,1.1 -0.3,2 -0.9,2.8 -0.6,0.8 -1.5,1.3 -2.7,1.6 l 4.2,6.3 h -3.7 l -3.4,-6.1 h -2.2 v 6.1 h -2.8 v -15.6 h 5.8 c 1.8,0 3.3,0.4 4.3,1.3 0.9,0.9 1.4,2.1 1.4,3.6 z m -6.1,2.8 c 1,0 1.8,-0.2 2.4,-0.7 0.5,-0.5 0.8,-1.1 0.8,-1.9 0,-0.8 -0.2,-1.4 -0.7,-1.9 -0.5,-0.5 -1.2,-0.7 -2.2,-0.7 h -2.9 v 5.2 z" />
			<path
   id="XMLID_413_"
   class="st6"
   d="m 515.7,753.2 c 1,0.9 1.5,2.1 1.5,3.7 0,1.6 -0.5,2.8 -1.5,3.7 -1,0.9 -2.4,1.3 -4.1,1.3 H 509 v 5.7 h -2.9 V 752 h 5.5 c 1.7,-0.1 3.1,0.3 4.1,1.2 z m -4.1,6.1 c 0.9,0 1.5,-0.2 2,-0.7 0.4,-0.5 0.7,-1.1 0.7,-1.8 0,-0.7 -0.2,-1.3 -0.7,-1.8 -0.4,-0.5 -1.1,-0.7 -2,-0.7 H 509 v 5 z" />
			<path
   id="XMLID_416_"
   class="st6"
   d="m 524.1,751.9 4.3,9.3 4.3,-9.3 h 3.9 v 15.6 h -2.9 v -11.8 l -4.4,10.1 h -1.8 l -4.6,-10.5 v 12.2 h -2.8 v -15.6 z" />
		</g>
	</g>
	<g
   id="XMLID_4_">
		<g
   id="XMLID_136_">
			<g
   id="XMLID_135_">
				<path
   id="XMLID_409_"
   class="st4"
   d="m 1094,744.2 h -14.9 c -0.8,0 -1.5,-0.7 -1.5,-1.5 0,-0.8 0.7,-1.5 1.5,-1.5 h 14.9 c 0.8,0 1.5,0.7 1.5,1.5 0,0.9 -0.7,1.5 -1.5,1.5 z" />
			</g>
			<g
   id="XMLID_134_">
				<path
   id="XMLID_408_"
   class="st4"
   d="m 1105.6,678.5 c -0.2,0 -0.3,0 -0.5,-0.1 l -14,-5.1 c -0.8,-0.3 -1.2,-1.1 -0.9,-1.9 0.3,-0.8 1.1,-1.2 1.9,-0.9 l 14,5.1 c 0.8,0.3 1.2,1.1 0.9,1.9 -0.2,0.6 -0.8,1 -1.4,1 z" />
			</g>
			<g
   id="XMLID_133_">
				<path
   id="XMLID_407_"
   class="st4"
   d="m 1139,620.6 c -0.3,0 -0.7,-0.1 -1,-0.4 l -11.4,-9.6 c -0.6,-0.5 -0.7,-1.5 -0.2,-2.1 0.5,-0.6 1.5,-0.7 2.1,-0.2 l 11.4,9.6 c 0.6,0.5 0.7,1.5 0.2,2.1 -0.2,0.4 -0.7,0.6 -1.1,0.6 z" />
			</g>
			<g
   id="XMLID_132_">
				<path
   id="XMLID_406_"
   class="st4"
   d="m 1190.2,577.7 c -0.5,0 -1,-0.3 -1.3,-0.8 l -7.4,-12.9 c -0.4,-0.7 -0.2,-1.6 0.5,-2 0.7,-0.4 1.6,-0.2 2,0.5 l 7.4,12.9 c 0.4,0.7 0.2,1.6 -0.5,2 -0.2,0.2 -0.5,0.3 -0.7,0.3 z" />
			</g>
			<g
   id="XMLID_131_">
				<path
   id="XMLID_405_"
   class="st4"
   d="m 1253,554.8 c -0.7,0 -1.3,-0.5 -1.5,-1.2 l -2.6,-14.7 c -0.1,-0.8 0.4,-1.6 1.2,-1.7 0.8,-0.1 1.6,0.4 1.7,1.2 l 2.6,14.7 c 0.1,0.8 -0.4,1.6 -1.2,1.7 -0.1,0 -0.2,0 -0.2,0 z" />
			</g>
			<g
   id="XMLID_130_">
				<path
   id="XMLID_404_"
   class="st4"
   d="m 1319.8,554.8 c -0.1,0 -0.2,0 -0.3,0 -0.8,-0.1 -1.4,-0.9 -1.2,-1.7 l 2.6,-14.7 c 0.1,-0.8 0.9,-1.4 1.7,-1.2 0.8,0.1 1.4,0.9 1.2,1.7 l -2.6,14.7 c -0.1,0.7 -0.7,1.2 -1.4,1.2 z" />
			</g>
			<g
   id="XMLID_129_">
				<path
   id="XMLID_403_"
   class="st3"
   d="m 1382.5,577.7 c -0.3,0 -0.5,-0.1 -0.7,-0.2 -0.7,-0.4 -1,-1.3 -0.5,-2 l 7.4,-12.9 c 0.4,-0.7 1.3,-1 2,-0.5 0.7,0.4 1,1.3 0.5,2 l -7.4,12.9 c -0.3,0.4 -0.8,0.7 -1.3,0.7 z" />
			</g>
			<g
   id="XMLID_128_">
				<path
   id="XMLID_402_"
   class="st3"
   d="m 1433.7,620.6 c -0.4,0 -0.9,-0.2 -1.2,-0.5 -0.5,-0.6 -0.4,-1.6 0.2,-2.1 l 11.4,-9.6 c 0.6,-0.5 1.6,-0.4 2.1,0.2 0.5,0.6 0.4,1.6 -0.2,2.1 l -11.4,9.6 c -0.2,0.2 -0.6,0.3 -0.9,0.3 z" />
			</g>
			<g
   id="XMLID_127_">
				<path
   id="XMLID_401_"
   class="st3"
   d="m 1467.1,678.5 c -0.6,0 -1.2,-0.4 -1.4,-1 -0.3,-0.8 0.1,-1.6 0.9,-1.9 l 14,-5.1 c 0.8,-0.3 1.6,0.1 1.9,0.9 0.3,0.8 -0.1,1.6 -0.9,1.9 l -14,5.1 c -0.2,0 -0.3,0.1 -0.5,0.1 z" />
			</g>
			<g
   id="XMLID_97_">
				<path
   id="XMLID_400_"
   class="st3"
   d="m 1493.6,744.2 h -14.9 c -0.8,0 -1.5,-0.7 -1.5,-1.5 0,-0.8 0.7,-1.5 1.5,-1.5 h 14.9 c 0.8,0 1.5,0.7 1.5,1.5 0,0.9 -0.7,1.5 -1.5,1.5 z" />
			</g>
		</g>
		<g
   id="XMLID_44_">
			<g
   id="XMLID_45_">
				<path
   id="XMLID_399_"
   class="st3"
   d="m 1465.8,849.4 c -0.5,0 -1,-0.1 -1.5,-0.4 l -18.1,-10.5 c -1.4,-0.8 -1.9,-2.7 -1.1,-4.1 0.8,-1.4 2.7,-1.9 4.1,-1.1 l 18.1,10.5 c 1.4,0.8 1.9,2.7 1.1,4.1 -0.6,0.9 -1.6,1.5 -2.6,1.5 z" />
			</g>
			<g
   id="XMLID_46_">
				<path
   id="XMLID_398_"
   class="st3"
   d="m 1490.4,781.7 c -0.2,0 -0.3,0 -0.5,0 l -20.6,-3.6 c -1.6,-0.3 -2.7,-1.8 -2.4,-3.5 0.3,-1.6 1.8,-2.7 3.5,-2.4 l 20.6,3.6 c 1.6,0.3 2.7,1.8 2.4,3.5 -0.3,1.4 -1.5,2.4 -3,2.4 z" />
			</g>
			<g
   id="XMLID_47_">
				<path
   id="XMLID_397_"
   class="st3"
   d="m 1469.8,713.4 c -1.4,0 -2.7,-1 -3,-2.5 -0.3,-1.6 0.8,-3.2 2.4,-3.5 l 20.6,-3.6 c 1.6,-0.3 3.2,0.8 3.5,2.4 0.3,1.6 -0.8,3.2 -2.4,3.5 l -20.6,3.6 c -0.2,0.1 -0.4,0.1 -0.5,0.1 z" />
			</g>
			<g
   id="XMLID_48_">
				<path
   id="XMLID_396_"
   class="st3"
   d="m 1447.7,652.6 c -1,0 -2,-0.5 -2.6,-1.5 -0.8,-1.4 -0.3,-3.3 1.1,-4.1 l 18.1,-10.5 c 1.4,-0.8 3.3,-0.3 4.1,1.1 0.8,1.4 0.3,3.3 -1.1,4.1 l -18.1,10.5 c -0.5,0.3 -1,0.4 -1.5,0.4 z" />
			</g>
			<g
   id="XMLID_49_">
				<path
   id="XMLID_395_"
   class="st3"
   d="m 1406.1,603.1 c -0.7,0 -1.4,-0.2 -1.9,-0.7 -1.3,-1.1 -1.4,-3 -0.4,-4.2 l 13.5,-16.1 c 1.1,-1.3 3,-1.4 4.2,-0.4 1.3,1.1 1.4,3 0.4,4.2 l -13.5,16.1 c -0.6,0.7 -1.5,1.1 -2.3,1.1 z" />
			</g>
			<g
   id="XMLID_50_">
				<path
   id="XMLID_394_"
   class="st3"
   d="m 1350.1,570.7 c -0.3,0 -0.7,-0.1 -1,-0.2 -1.6,-0.6 -2.4,-2.3 -1.8,-3.8 l 7.2,-19.7 c 0.6,-1.6 2.3,-2.4 3.8,-1.8 1.6,0.6 2.4,2.3 1.8,3.8 l -7.2,19.7 c -0.5,1.3 -1.6,2 -2.8,2 z" />
			</g>
			<g
   id="XMLID_51_">
				<path
   id="XMLID_393_"
   class="st4"
   d="m 1286.4,559.5 c -1.7,0 -3,-1.3 -3,-3 v -21 c 0,-1.7 1.3,-3 3,-3 1.7,0 3,1.3 3,3 v 21 c 0,1.6 -1.4,3 -3,3 z" />
			</g>
			<g
   id="XMLID_52_">
				<path
   id="XMLID_392_"
   class="st4"
   d="m 1222.7,570.7 c -1.2,0 -2.4,-0.8 -2.8,-2 l -7.2,-19.7 c -0.6,-1.6 0.2,-3.3 1.8,-3.8 1.6,-0.6 3.3,0.2 3.8,1.8 l 7.2,19.7 c 0.6,1.6 -0.2,3.3 -1.8,3.8 -0.4,0.2 -0.7,0.2 -1,0.2 z" />
			</g>
			<g
   id="XMLID_53_">
				<path
   id="XMLID_391_"
   class="st4"
   d="m 1166.6,603.1 c -0.9,0 -1.7,-0.4 -2.3,-1.1 l -13.5,-16.1 c -1.1,-1.3 -0.9,-3.2 0.4,-4.2 1.3,-1.1 3.2,-0.9 4.2,0.4 l 13.5,16.1 c 1.1,1.3 0.9,3.2 -0.4,4.2 -0.5,0.4 -1.2,0.7 -1.9,0.7 z" />
			</g>
			<g
   id="XMLID_54_">
				<path
   id="XMLID_390_"
   class="st4"
   d="m 1125,652.6 c -0.5,0 -1,-0.1 -1.5,-0.4 l -18.2,-10.5 c -1.4,-0.8 -1.9,-2.7 -1.1,-4.1 0.8,-1.4 2.7,-1.9 4.1,-1.1 l 18.2,10.5 c 1.4,0.8 1.9,2.7 1.1,4.1 -0.5,1 -1.5,1.5 -2.6,1.5 z" />
			</g>
			<g
   id="XMLID_55_">
				<path
   id="XMLID_389_"
   class="st4"
   d="m 1102.9,713.4 c -0.2,0 -0.3,0 -0.5,0 l -20.6,-3.6 c -1.6,-0.3 -2.7,-1.8 -2.4,-3.5 0.3,-1.6 1.9,-2.7 3.5,-2.4 l 20.6,3.6 c 1.6,0.3 2.7,1.8 2.4,3.5 -0.3,1.4 -1.5,2.4 -3,2.4 z" />
			</g>
			<g
   id="XMLID_56_">
				<path
   id="XMLID_388_"
   class="st4"
   d="m 1082.3,781.7 c -1.4,0 -2.7,-1 -3,-2.5 -0.3,-1.6 0.8,-3.2 2.4,-3.5 l 20.6,-3.6 c 1.6,-0.3 3.2,0.8 3.5,2.4 0.3,1.6 -0.8,3.2 -2.4,3.5 l -20.6,3.6 c -0.2,0.1 -0.3,0.1 -0.5,0.1 z" />
			</g>
			<g
   id="XMLID_57_">
				<path
   id="XMLID_387_"
   class="st4"
   d="m 1106.9,849.4 c -1,0 -2,-0.5 -2.6,-1.5 -0.8,-1.4 -0.3,-3.3 1.1,-4.1 l 18.2,-10.5 c 1.4,-0.8 3.3,-0.3 4.1,1.1 0.8,1.4 0.3,3.3 -1.1,4.1 l -18.2,10.5 c -0.5,0.2 -1,0.4 -1.5,0.4 z" />
			</g>
		</g>
		<g
   id="XMLID_6_">
			<polygon
   id="XMLID_9_"
   class="st3"
   points="1238.8,658 1233.6,661 1198,593.5 " />
		</g>
		<g
   id="XMLID_138_">
			<path
   id="XMLID_386_"
   class="st4"
   d="m 1091.6,814.5 c -0.6,0 -1.2,-0.4 -1.4,-0.9 -0.3,-0.8 0.1,-1.6 0.8,-2 l 12.1,-4.9 c 0.8,-0.3 1.6,0.1 2,0.8 0.3,0.8 -0.1,1.6 -0.8,2 l -12.1,4.9 c -0.2,0.1 -0.4,0.1 -0.6,0.1 z" />
		</g>
		<g
   id="XMLID_139_">
			<path
   id="XMLID_385_"
   class="st3"
   d="m 1481.1,814.5 c -0.2,0 -0.4,0 -0.6,-0.1 l -12.1,-4.9 c -0.8,-0.3 -1.1,-1.2 -0.8,-2 0.3,-0.8 1.2,-1.1 2,-0.8 l 12.1,4.9 c 0.8,0.3 1.1,1.2 0.8,2 -0.3,0.5 -0.8,0.9 -1.4,0.9 z" />
		</g>
		<g
   id="XMLID_59_">
			<path
   id="XMLID_382_"
   class="st5"
   d="m 1367.8,907 h -162.9 c -40.5,0 -78.5,-21.2 -99.2,-55.4 -19.9,-32.8 -30.4,-70.6 -30.4,-109.1 0,-56.4 21.9,-109.3 61.8,-149.2 39.8,-39.9 92.8,-61.8 149.2,-61.8 0,0 0.1,0 0.1,0 56.5,0 109.5,21.9 149.3,61.7 39.8,39.8 61.7,92.8 61.7,149.4 0,37.9 -10.2,75.1 -29.4,107.5 -20.9,35.1 -59.3,56.9 -100.2,56.9 z m -81.4,-367.5 c -0.1,0 -0.1,0 0,0 -112,0 -203,91.1 -203,203 0,37.1 10.1,73.4 29.2,105 19.2,31.8 54.6,51.5 92.3,51.5 h 162.9 c 38.1,0 73.9,-20.3 93.3,-53.1 18.5,-31.2 28.3,-66.9 28.3,-103.4 0,-54.4 -21.1,-105.4 -59.4,-143.7 -38.3,-38.2 -89.3,-59.3 -143.6,-59.3 z" />
		</g>
		<g
   id="XMLID_146_">
			<path
   id="XMLID_379_"
   class="st5"
   d="m 1367.8,795 h -162.9 c -1.3,0 -2.4,-0.5 -3,-1 l -0.3,-0.2 -0.2,-0.3 c -9.2,-15.3 -14.1,-32.9 -14.1,-51 0,-54.6 44.4,-99 99,-99 26.6,0 51.5,10.3 70.2,28.9 18.6,18.6 28.9,43.5 28.9,70.1 0,17.8 -4.7,35.2 -13.7,50.4 -0.8,1.2 -2.4,2.1 -3.9,2.1 z m -163.2,-4 c 0.1,0 0.2,0.1 0.3,0.1 h 162.9 c 0.1,0 0.4,-0.1 0.4,-0.2 8.6,-14.5 13.1,-31.2 13.1,-48.3 0,-25.5 -9.8,-49.4 -27.7,-67.3 -17.9,-17.9 -41.8,-27.7 -67.3,-27.7 -52.4,0 -95,42.6 -95,95 0,17.1 4.6,33.8 13.3,48.4 z" />
		</g>
		<g
   id="XMLID_143_">
			<path
   id="XMLID_298_"
   class="st6"
   d="m 1268,686.5 v 32.3 h 8.9 v 7.9 H 1268 V 738 h -9.2 v -11.3 h -25.9 v -7 l 26.1,-33.3 h 9 z m -24.1,33.3 h 15.3 v -19.5 z" />
			<path
   id="XMLID_376_"
   class="st6"
   d="m 1295.2,707 c 2.8,-0.5 5.5,-0.7 8.1,-0.7 5.3,0 9.5,1.3 12.7,3.8 3.1,2.5 4.7,6.2 4.7,11 0,5.2 -1.8,9.5 -5.3,12.8 -3.7,3.5 -8.4,5.3 -14.1,5.3 -5.6,0 -10.1,-1.4 -13.5,-4.2 -3.5,-2.9 -5.3,-7 -5.4,-12.1 h 9.5 c 0,2.7 0.9,4.6 2.7,5.9 1.8,1.3 4.1,1.9 6.8,1.9 2.8,0 5.1,-0.9 6.9,-2.7 1.8,-1.8 2.7,-4.1 2.7,-6.8 0,-5.2 -3.5,-7.8 -10.5,-7.8 H 1285 l 2.4,-26.3 h 30.6 v 8.5 h -21.6 z" />
		</g>
		<g
   id="XMLID_140_">
			<path
   id="XMLID_222_"
   class="st6"
   d="m 1267.5,751.9 4.3,9.3 4.3,-9.3 h 3.9 v 15.6 h -2.9 v -11.8 l -4.4,10.1 h -1.8 l -4.6,-10.5 v 12.2 h -2.8 v -15.6 z" />
			<path
   id="XMLID_225_"
   class="st6"
   d="m 1293.9,753.2 c 1,0.9 1.5,2.1 1.5,3.7 0,1.6 -0.5,2.8 -1.5,3.7 -1,0.9 -2.4,1.3 -4.1,1.3 h -2.6 v 5.7 h -2.9 V 752 h 5.5 c 1.8,-0.1 3.1,0.3 4.1,1.2 z m -4.1,6.1 c 0.9,0 1.5,-0.2 2,-0.7 0.4,-0.5 0.7,-1.1 0.7,-1.8 0,-0.7 -0.2,-1.3 -0.7,-1.8 -0.4,-0.5 -1.1,-0.7 -2,-0.7 h -2.6 v 5 z" />
			<path
   id="XMLID_228_"
   class="st6"
   d="m 1301.1,751.9 v 6.5 h 6.8 v -6.5 h 2.8 v 15.6 h -2.8 v -6.6 h -6.8 v 6.6 h -2.8 v -15.6 z" />
		</g>
	</g>
	<g
   id="XMLID_10_">
		<path
   class="st7"
   d="m 1174.8,492.1 -35.3,-24.8 c -1,-0.7 -2.4,0 -2.4,1.2 v 6.3 c 0,0.8 -0.7,1.5 -1.5,1.5 h -45 c -0.8,0 -1.5,0.7 -1.5,1.5 v 31 c 0,0.8 0.7,1.5 1.5,1.5 h 45 c 0.8,0 1.5,0.7 1.5,1.5 v 6.3 c 0,1.2 1.4,1.9 2.4,1.2 l 35.3,-24.8 c 0.9,-0.5 0.9,-1.8 0,-2.4 z"
   id="path944" />
	</g>
	<g
   id="XMLID_11_">
		<path
   class="st8"
   d="m 625.2,494.6 35.3,24.8 c 1,0.7 2.4,0 2.4,-1.2 v -6.3 c 0,-0.8 0.7,-1.5 1.5,-1.5 h 45 c 0.8,0 1.5,-0.7 1.5,-1.5 v -31 c 0,-0.8 -0.7,-1.5 -1.5,-1.5 h -45 c -0.8,0 -1.5,-0.7 -1.5,-1.5 v -6.3 c 0,-1.2 -1.4,-1.9 -2.4,-1.2 l -35.3,24.8 c -0.9,0.5 -0.9,1.8 0,2.4 z"
   id="path947" />
	</g>
	<g
   id="XMLID_12_">
		<g
   id="XMLID_13_">
			<path
   id="XMLID_14_"
   class="st9"
   d="m 819.3,652.8 95.8,17.4 c -0.1,-36.5 5.5,-72.4 12.8,-103.6 h -108 z" />
		</g>
		<g
   id="XMLID_98_">
			<path
   id="XMLID_220_"
   class="st10"
   d="m 930.6,690.3 114.9,20.9 V 694 L 930.1,673 c -0.4,-36.9 5.3,-73.7 13.2,-106.4 h -15.5 c -7.3,31.2 -12.9,67.2 -12.8,103.6 l -95.8,-17.4 -0.1,17.3 96.3,17.5 c 1.9,46.6 9.8,87.6 18.3,119.5 h 15.7 C 941,776.2 932.8,735.9 930.6,690.3 Z" />
		</g>
		<g
   id="XMLID_144_">
			<path
   id="XMLID_219_"
   class="st10"
   d="m 974.6,471.5 c -5.3,-0.5 -10.5,-0.9 -15.8,-1.3 -4.9,11.8 -10.8,27.3 -16.8,45.4 -3,9.3 -6.2,19.7 -9.2,31 h 15.6 c 8.9,-31.7 19.1,-58.2 26.2,-75.1 z" />
		</g>
		<g
   id="XMLID_159_">
			<polygon
   id="XMLID_218_"
   class="st10"
   points="799.2,666.4 799.3,649.2 754.5,641 754.5,658.3 " />
		</g>
		<g
   id="XMLID_160_">
			<path
   id="XMLID_40_"
   class="st11"
   d="m 819.9,566.6 h 107.9 15.5 102.2 v -20 h -97 -15.6 -101.7 l 64.6,-78.5 c -8.8,0 -17.6,0.2 -26.4,0.6 l -64.2,77.9 h -50.8 v 20 h 45.4 l -0.6,82.6 -0.1,17.3 -1,140.6 h 20 l 1,-137 0.1,-17.3 z" />
		</g>
	</g>
	<g
   id="XMLID_15_">
		<g
   id="XMLID_16_">
			<path
   id="XMLID_17_"
   class="st9"
   d="M 1045.5,742.6 V 508 c 0,-15.7 -11.6,-29.1 -27.1,-31.3 -78.9,-11.4 -157.8,-11.4 -236.7,0 -15.6,2.3 -27.1,15.6 -27.1,31.3 v 234.6 z" />
		</g>
	</g>
	<g
   id="XMLID_141_">
		<path
   id="XMLID_19_"
   class="st5"
   d="m 754.5,775.4 c 0,17.5 14.2,31.6 31.6,31.6 h 227.7 c 17.5,0 31.6,-14.2 31.6,-31.6 v -32.8 h -291 v 32.8 z" />
	</g>
	<g
   id="XMLID_18_">
		<path
   id="XMLID_215_"
   class="st5"
   d="M 1013.9,809 H 786.1 c -18.5,0 -33.6,-15.1 -33.6,-33.6 V 508 c 0,-16.6 12.4,-30.9 28.9,-33.3 78.7,-11.4 158.6,-11.4 237.3,0 16.4,2.4 28.9,16.7 28.9,33.3 v 267.4 c -0.1,18.6 -15.2,33.6 -33.7,33.6 z M 900,470.1 c -39.4,0 -78.9,2.8 -118.1,8.5 -14.5,2.1 -25.4,14.7 -25.4,29.3 v 267.4 c 0,16.3 13.3,29.6 29.6,29.6 h 227.7 c 16.3,0 29.6,-13.3 29.6,-29.6 V 508 c 0,-14.6 -10.9,-27.2 -25.4,-29.3 -39.1,-5.7 -78.6,-8.6 -118,-8.6 z" />
	</g>
	<g
   id="XMLID_20_">
		<path
   class="st12"
   d="m 809.6,624.2 -6.3,8.9 c -0.2,0.3 0,0.6 0.3,0.6 h 1.6 c 0.2,0 0.4,0.2 0.4,0.4 v 11.4 c 0,0.2 0.2,0.4 0.4,0.4 h 7.8 c 0.2,0 0.4,-0.2 0.4,-0.4 v -11.4 c 0,-0.2 0.2,-0.4 0.4,-0.4 h 1.6 c 0.3,0 0.5,-0.3 0.3,-0.6 l -6.3,-8.9 c -0.2,-0.2 -0.5,-0.2 -0.6,0 z"
   id="path968" />
	</g>
	<g
   id="XMLID_21_">
		<g
   id="XMLID_170_">
			<path
   id="XMLID_23_"
   class="st6"
   d="m 795.5,777.5 h 6.2 v 1.2 h -2.4 v 6.6 h -1.4 v -6.6 h -2.4 z" />
		</g>
		<g
   id="XMLID_172_">
			<path
   id="XMLID_24_"
   class="st6"
   d="m 804.2,777.5 v 4.8 c 0,0.6 0.2,1.1 0.5,1.4 0.3,0.3 0.7,0.4 1.3,0.4 0.5,0 0.9,-0.1 1.3,-0.4 0.3,-0.3 0.5,-0.7 0.5,-1.4 v -4.8 h 1.4 v 4.8 c 0,1 -0.3,1.8 -0.8,2.3 -0.6,0.5 -1.3,0.8 -2.3,0.8 -1,0 -1.8,-0.3 -2.3,-0.8 -0.6,-0.5 -0.8,-1.3 -0.8,-2.3 v -4.8 z" />
		</g>
		<g
   id="XMLID_174_">
			<path
   id="XMLID_25_"
   class="st6"
   d="m 817,779.8 c 0,0.6 -0.2,1 -0.5,1.4 -0.3,0.4 -0.8,0.7 -1.3,0.8 l 2.1,3.2 h -1.8 l -1.7,-3 h -1.1 v 3 h -1.4 v -7.8 h 2.9 c 0.9,0 1.6,0.2 2.1,0.7 0.4,0.4 0.7,1 0.7,1.7 z m -3.1,1.5 c 0.5,0 0.9,-0.1 1.2,-0.4 0.3,-0.2 0.4,-0.5 0.4,-0.9 0,-0.4 -0.1,-0.7 -0.4,-0.9 -0.2,-0.2 -0.6,-0.4 -1.1,-0.4 h -1.5 v 2.6 z" />
		</g>
		<g
   id="XMLID_177_">
			<path
   id="XMLID_26_"
   class="st6"
   d="m 820.4,777.5 3.4,5.5 v -5.5 h 1.4 v 7.8 h -1.4 l -3.5,-5.7 v 5.7 h -1.4 v -7.8 z" />
		</g>
		<g
   id="XMLID_179_">
			<path
   id="XMLID_27_"
   class="st6"
   d="m 836.3,779.8 c 0,0.6 -0.2,1 -0.5,1.4 -0.3,0.4 -0.8,0.7 -1.3,0.8 l 2.1,3.2 h -1.8 l -1.7,-3 H 832 v 3 h -1.4 v -7.8 h 2.9 c 0.9,0 1.6,0.2 2.1,0.7 0.5,0.4 0.7,1 0.7,1.7 z m -3,1.5 c 0.5,0 0.9,-0.1 1.2,-0.4 0.3,-0.2 0.4,-0.5 0.4,-0.9 0,-0.4 -0.1,-0.7 -0.4,-0.9 -0.2,-0.2 -0.6,-0.4 -1.1,-0.4 H 832 v 2.6 z" />
		</g>
		<g
   id="XMLID_182_">
			<path
   id="XMLID_28_"
   class="st6"
   d="m 838.3,777.5 h 1.4 v 7.8 h -1.4 z" />
		</g>
		<g
   id="XMLID_184_">
			<path
   id="XMLID_30_"
   class="st6"
   d="m 846.7,784 c -0.3,0.9 -1,1.4 -1.9,1.4 -1,0 -1.8,-0.4 -2.4,-1.1 -0.7,-0.8 -1,-1.7 -1,-2.9 0,-1.2 0.4,-2.2 1.1,-3 0.7,-0.7 1.6,-1.1 2.6,-1.1 0.7,0 1.3,0.2 1.8,0.5 0.5,0.3 0.9,0.8 1.2,1.5 l -1.5,0.3 c -0.4,-0.7 -1,-1 -1.6,-1 -0.6,0 -1.1,0.3 -1.5,0.8 -0.4,0.5 -0.6,1.2 -0.6,2.1 0,0.8 0.2,1.5 0.6,2 0.4,0.5 0.8,0.7 1.4,0.7 0.5,0 0.9,-0.2 1.3,-0.5 0.3,-0.3 0.5,-0.8 0.5,-1.4 v 0 h -1.8 v -0.9 h 3.1 v 4 h -1.2 z" />
		</g>
		<g
   id="XMLID_186_">
			<path
   id="XMLID_31_"
   class="st6"
   d="m 851.5,777.5 v 3.3 h 3.4 v -3.3 h 1.4 v 7.8 h -1.4 V 782 h -3.4 v 3.3 H 850 v -7.8 z" />
		</g>
		<g
   id="XMLID_188_">
			<path
   id="XMLID_38_"
   class="st6"
   d="m 857.5,777.5 h 6.2 v 1.2 h -2.4 v 6.6 h -1.4 v -6.6 h -2.4 z" />
		</g>
	</g>
	<g
   id="XMLID_149_">
		<g
   id="XMLID_151_">
			<path
   id="XMLID_63_"
   class="st6"
   d="m 798,791.8 c 0.4,-0.1 0.8,-0.1 1.2,-0.1 0.8,0 1.5,0.2 1.9,0.6 0.5,0.4 0.7,0.9 0.7,1.7 0,0.8 -0.3,1.4 -0.8,2 -0.6,0.5 -1.3,0.8 -2.1,0.8 -0.9,0 -1.5,-0.2 -2.1,-0.6 -0.5,-0.4 -0.8,-1.1 -0.8,-1.8 h 1.5 c 0,0.4 0.1,0.7 0.4,0.9 0.3,0.2 0.6,0.3 1,0.3 0.4,0 0.8,-0.1 1.1,-0.4 0.3,-0.3 0.4,-0.6 0.4,-1 0,-0.8 -0.5,-1.2 -1.6,-1.2 h -2.4 l 0.4,-4 h 4.7 v 1.3 h -3.3 z" />
		</g>
		<g
   id="XMLID_165_">
			<path
   id="XMLID_72_"
   class="st6"
   d="m 811.7,791.8 c 0.4,-0.8 1,-1.3 2,-1.3 0.7,0 1.2,0.2 1.6,0.7 0.4,0.4 0.6,1.1 0.6,1.9 v 3.4 h -1.4 v -3.4 c 0,-0.4 -0.1,-0.8 -0.3,-1 -0.2,-0.2 -0.5,-0.3 -0.9,-0.3 -0.4,0 -0.7,0.2 -0.9,0.5 -0.2,0.3 -0.4,0.8 -0.4,1.5 v 2.7 h -1.4 v -3.4 c 0,-0.4 -0.1,-0.8 -0.3,-1 -0.2,-0.2 -0.5,-0.3 -0.9,-0.3 -0.4,0 -0.7,0.2 -1,0.5 -0.3,0.3 -0.4,0.8 -0.4,1.5 v 2.7 h -1.4 v -5.8 h 1.2 l 0.2,1 c 0.4,-0.8 1,-1.2 1.8,-1.2 0.5,0 0.9,0.1 1.2,0.3 0.3,0.3 0.6,0.6 0.7,1 z" />
		</g>
		<g
   id="XMLID_167_">
			<path
   id="XMLID_77_"
   class="st6"
   d="m 817.9,788.8 c 0,-0.3 0.1,-0.5 0.2,-0.6 0.2,-0.1 0.4,-0.2 0.6,-0.2 0.3,0 0.5,0.1 0.6,0.2 0.2,0.1 0.2,0.4 0.2,0.6 0,0.3 -0.1,0.5 -0.2,0.6 -0.2,0.1 -0.4,0.2 -0.6,0.2 -0.3,0 -0.5,-0.1 -0.6,-0.2 -0.1,-0.2 -0.2,-0.4 -0.2,-0.6 z m 0.1,1.9 h 1.4 v 5.8 H 818 Z" />
		</g>
	</g>
	<g
   id="XMLID_164_">
		<path
   id="XMLID_62_"
   class="st12"
   d="m 822.2,758.3 -8,-5.6 c -0.2,-0.2 -0.5,0 -0.5,0.3 v 1.4 c 0,0.2 -0.2,0.3 -0.3,0.3 h -5.3 c -5.2,0 -9.5,4.3 -9.5,9.5 v 6 c 0,0.4 0.3,0.7 0.7,0.7 h 6.4 c 0.4,0 0.7,-0.3 0.7,-0.7 v -5.7 c 0,-1.1 0.9,-2.1 2.1,-2.1 h 4.9 c 0.2,0 0.3,0.2 0.3,0.3 v 1.4 c 0,0.3 0.3,0.4 0.5,0.3 l 8,-5.6 c 0.2,0 0.2,-0.3 0,-0.5 z" />
	</g>
	<g
   id="XMLID_22_">
		<path
   id="XMLID_211_"
   class="st5"
   d="m 1047.5,890.1 h -295 v -37 h 295 z m -291,-4 h 287 v -29 h -287 z" />
	</g>
	<g
   id="XMLID_191_">
		<g
   id="XMLID_190_">
			<rect
   x="805.59998"
   y="860"
   class="st7"
   width="8.8000002"
   height="23"
   id="rect1001" />
		</g>
		<g
   id="XMLID_192_">
			<rect
   x="820.59998"
   y="860"
   class="st7"
   width="8.8000002"
   height="23"
   id="rect1004" />
		</g>
		<g
   id="XMLID_193_">
			<rect
   x="835.59998"
   y="860"
   class="st7"
   width="8.8000002"
   height="23"
   id="rect1007" />
		</g>
		<g
   id="XMLID_194_">
			<rect
   x="850.59998"
   y="860"
   class="st7"
   width="8.8000002"
   height="23"
   id="rect1010" />
		</g>
		<g
   id="XMLID_195_">
			<rect
   x="865.59998"
   y="860"
   class="st7"
   width="8.8000002"
   height="23"
   id="rect1013" />
		</g>
		<g
   id="XMLID_196_">
			<rect
   x="880.59998"
   y="860"
   class="st7"
   width="8.8000002"
   height="23"
   id="rect1016" />
		</g>
		<g
   id="XMLID_197_">
			<rect
   x="895.59998"
   y="860"
   class="st7"
   width="8.8000002"
   height="23"
   id="rect1019" />
		</g>
		<g
   id="XMLID_198_">
			<rect
   x="910.59998"
   y="860"
   class="st7"
   width="8.8000002"
   height="23"
   id="rect1022" />
		</g>
		<g
   id="XMLID_199_">
			<rect
   x="925.59998"
   y="860"
   class="st7"
   width="8.8000002"
   height="23"
   id="rect1025" />
		</g>
		<g
   id="XMLID_200_">
			<rect
   x="940.59998"
   y="860"
   class="st8"
   width="8.8000002"
   height="23"
   id="rect1028" />
		</g>
		<g
   id="XMLID_201_">
			<rect
   x="955.59998"
   y="860"
   class="st8"
   width="8.8000002"
   height="23"
   id="rect1031" />
		</g>
		<g
   id="XMLID_202_">
			<rect
   x="970.59998"
   y="860"
   class="st8"
   width="8.8000002"
   height="23"
   id="rect1034" />
		</g>
		<g
   id="XMLID_203_">
			<rect
   x="985.59998"
   y="860"
   class="st8"
   width="8.8000002"
   height="23"
   id="rect1037" />
		</g>
	</g>
	<g
   id="XMLID_204_">
		<path
   id="XMLID_208_"
   class="st6"
   d="M 770.7,861.7 H 783 v 3 h -8.8 v 5 h 8.3 v 3 h -8.3 v 5 h 8.8 v 3 h -12.3 z" />
	</g>
	<g
   id="XMLID_206_">
		<path
   id="XMLID_163_"
   class="st6"
   d="m 1021.7,861.7 h 12 v 3 h -8.5 v 5 h 7.8 v 3 h -7.8 v 8.1 h -3.5 z" />
	</g>
	<g
   id="XMLID_94_">
		<path
   id="XMLID_152_"
   class="st6"
   d="m 502,860.8 c -0.1,1.1 -0.5,2.1 -1.1,2.9 -0.6,0.8 -1.5,1.3 -2.6,1.7 l 3.2,6.3 H 498 l -2.5,-6.1 h -1.9 l -0.6,6.1 h -2.6 l 1.5,-15.6 h 5.2 c 1.7,0 3,0.4 3.8,1.3 0.9,0.7 1.2,1.9 1.1,3.4 z m -5.8,2.8 c 0.9,0 1.7,-0.2 2.2,-0.7 0.5,-0.5 0.8,-1.1 0.9,-1.8 0,-0.8 -0.1,-1.4 -0.5,-1.9 -0.4,-0.5 -1,-0.7 -1.8,-0.7 h -2.6 l -0.5,5.1 z" />
		<path
   id="XMLID_155_"
   class="st6"
   d="m 514.5,857.2 c 0.8,0.9 1.1,2.1 1,3.7 -0.2,1.6 -0.7,2.8 -1.7,3.7 -1,0.9 -2.3,1.3 -3.9,1.3 h -2.3 l -0.5,5.6 h -2.7 l 1.5,-15.6 h 5 c 1.6,0.1 2.8,0.5 3.6,1.3 z m -4.3,6.2 c 0.8,0 1.4,-0.2 1.8,-0.7 0.4,-0.4 0.7,-1 0.8,-1.8 0.1,-0.7 -0.1,-1.3 -0.4,-1.8 -0.4,-0.5 -0.9,-0.7 -1.7,-0.7 h -2.3 l -0.5,4.9 h 2.3 z" />
		<path
   id="XMLID_158_"
   class="st6"
   d="m 522.3,856 2.9,9.2 4.6,-9.2 h 3.6 l -1.5,15.6 h -2.7 l 1.1,-11.8 -4.8,10.1 h -1.7 l -3,-10.5 -1.1,12.1 H 517 l 1.5,-15.6 h 3.8 z" />
	</g>
	<g
   id="XMLID_147_">
		<path
   id="XMLID_90_"
   class="st6"
   d="m 1268.4,856 2.9,9.2 4.6,-9.2 h 3.6 l -1.5,15.6 h -2.7 l 1.1,-11.8 -4.8,10.1 h -1.7 l -3,-10.5 -1.1,12.1 h -2.6 l 1.5,-15.6 h 3.7 z" />
		<path
   id="XMLID_99_"
   class="st6"
   d="m 1292.1,857.2 c 0.8,0.9 1.1,2.1 1,3.7 -0.2,1.6 -0.7,2.8 -1.7,3.7 -1,0.9 -2.3,1.3 -3.9,1.3 h -2.3 l -0.5,5.6 h -2.7 l 1.5,-15.6 h 5 c 1.6,0.1 2.8,0.5 3.6,1.3 z m -4.3,6.2 c 0.8,0 1.4,-0.2 1.8,-0.7 0.4,-0.4 0.7,-1 0.8,-1.8 0.1,-0.7 -0.1,-1.3 -0.4,-1.8 -0.4,-0.5 -0.9,-0.7 -1.7,-0.7 h -2.3 l -0.5,4.9 h 2.3 z" />
		<path
   id="XMLID_145_"
   class="st6"
   d="m 1298.8,856 -0.6,6.5 h 6.1 l 0.6,-6.5 h 2.6 l -1.5,15.6 h -2.6 l 0.6,-6.6 h -6 l -0.6,6.6 h -2.6 l 1.5,-15.6 z" />
	</g>
</g>
</svg>
