<svg viewBox="0 0 2294.56 532.85" xmlns:xlink="http://www.w3.org/1999/xlink" xmlns="http://www.w3.org/2000/svg"><defs><path id="a" d="M21.46 262.05c0 34.56 6.77 68.1 20.12 99.65 12.9 30.48 31.35 57.86 54.86 81.37s50.9 41.97 81.37 54.86c31.56 13.35 65.1 20.12 99.65 20.12s68.1-6.77 99.65-20.12c30.48-12.9 57.86-31.35 81.37-54.86s41.97-50.9 54.86-81.37c13.35-31.57 20.12-65.1 20.12-99.65s-6.77-68.1-20.12-99.65c-12.9-30.48-31.35-57.86-54.86-81.37s-50.9-41.97-81.37-54.86c-31.55-13.36-65.1-20.12-99.65-20.12s-68.1 6.77-99.65 20.12c-30.48 12.9-57.86 31.35-81.37 54.86s-41.98 50.9-54.86 81.37c-13.35 31.55-20.12 65.1-20.12 99.65z"/><path id="g" d="M467.54 176.73c-245 98.43-372.4-8.82-372.4-8.82s173.37-264 372.4 8.82z"/></defs><clipPath id="b"><use xlink:href="#a"/></clipPath><path clip-path="url(#b)" fill="#998675" d="M14.08 0h524.88v524.87H14.08V0z"/><defs><path id="c" d="M21.46 262.05c0 34.56 6.77 68.1 20.12 99.65 12.9 30.48 31.35 57.86 54.86 81.37s50.9 41.97 81.37 54.86c31.56 13.35 65.1 20.12 99.65 20.12s68.1-6.77 99.65-20.12c30.48-12.9 57.86-31.35 81.37-54.86s41.97-50.9 54.86-81.37c13.35-31.57 20.12-65.1 20.12-99.65s-6.77-68.1-20.12-99.65c-12.9-30.48-31.35-57.86-54.86-81.37s-50.9-41.97-81.37-54.86c-31.55-13.36-65.1-20.12-99.65-20.12s-68.1 6.77-99.65 20.12c-30.48 12.9-57.86 31.35-81.37 54.86s-41.98 50.9-54.86 81.37c-13.35 31.55-20.12 65.1-20.12 99.65z"/></defs><clipPath id="d"><use xlink:href="#c"/></clipPath><path clip-path="url(#d)" fill="#534741" d="M538.96 532.85H14.08s-31.67-92.7 0-124.36c92.8-92.8 432.1-92.8 524.87 0 31.67 31.66 0 124.36 0 124.36h.01z"/><path opacity=".25" d="M277.46 21c32.55 0 64.1 6.37 93.82 18.94 28.7 12.14 54.48 29.52 76.63 51.67 22.14 22.14 39.53 47.92 51.67 76.63 12.57 29.7 18.94 61.28 18.94 93.82s-6.37 64.1-18.94 93.82c-12.14 28.7-29.52 54.48-51.67 76.63-22.14 22.14-47.92 39.53-76.63 51.67-29.7 12.57-61.28 18.94-93.82 18.94s-64.1-6.37-93.82-18.94c-28.7-12.14-54.48-29.52-76.63-51.67-22.14-22.14-39.53-47.92-51.67-76.63-12.57-29.7-18.94-61.28-18.94-93.82s6.37-64.1 18.94-93.82c12.14-28.7 29.52-54.48 51.67-76.63 22.14-22.14 47.92-39.53 76.63-51.67C213.34 27.37 244.9 21 277.46 21m0-14.94c-141.38 0-256 114.62-256 256s114.62 256 256 256 256-114.62 256-256-114.62-256-256-256zm1.44 484.28c-13.13 0-53.1 0-65.55-33.8-17.1-46.42 7.86-85.84 8.93-87.5 2.3-3.58 6.2-5.83 10.45-6.05l.72-.02c3.43 0 6.7 1.33 9.18 3.67v-51.38l-3.98 2.77c-2.23 1.55-4.88 2.4-7.6 2.38a13.297 13.297 0 0 1-12.02-18.99l23.58-49.76v-20.9c-101.2-7.27-153.78-50.63-156.05-52.54a13.292 13.292 0 0 1-2.55-17.46c.8-1.23 20.2-30.55 53.53-60.1 44.85-39.78 93.73-60.8 141.36-60.8 69.84 0 136.92 43.47 199.4 129.2 2.4 3.3 3.17 7.56 2.03 11.5a13.31 13.31 0 0 1-7.82 8.67c-54.95 22.1-108.52 35.73-159.44 40.57v21.25l20.3 48.7c2.27 5.45.68 11.73-3.9 15.45-2.43 1.97-5.4 2.96-8.37 2.96a13.3 13.3 0 0 1-7.55-2.35l-.48-.33v56.73l.77-1.26c2.42-3.97 6.72-6.38 11.36-6.38h.2c4.7.07 9.03 2.6 11.36 6.7.86 1.5 20.77 37.22 4.73 84.04-4.5 13.1-13.4 22.7-26.45 28.54-9.8 4.38-21.6 6.5-36.1 6.5-.03-.03-.04-.03-.04-.03v.02z"/><path fill="#fff" d="M255.92 135.53h43.85v301.64h-43.85V135.53z"/><path opacity=".2" d="M255.92 135.53h21.54v301.64h-21.54V135.53z"/><g fill="#fff" stroke-miterlimit="10"><path stroke="#736357" stroke-width="2.988" d="m290.14 308.28-10.3-18.72-25.33 18.72-1.87-16.47-21.57 14.97 24.2-51s4.3 10.14 24.58 10.57c12.54.26 20.64-11.23 20.64-11.23l20.63 49.4-20.66-14.2-10.32 17.97z"/><path stroke="#413522" stroke-width="3.984" d="m292.94 393.15-9.05 27.52-19.2-44.82-12.08 23.6-19.18-23.6s-22.6 34.9-7.62 75.58c7.82 21.2 30.9 25.07 53.07 25.07s42.96-5.57 49.98-26.03c14.28-41.6-3.7-73.04-3.7-73.04l-20.1 33.02-12.1-17.3h-.02z"/></g><defs><path id="e" d="M467.54 176.73c-245 98.43-372.4-8.82-372.4-8.82s173.37-264 372.4 8.82z"/></defs><clipPath id="f"><use xlink:href="#e"/></clipPath><g clip-path="url(#f)"><use xlink:href="#g" fill="#c1272d"/><g fill="#fff"><ellipse transform="rotate(-4.031 317.628 138.984)" cx="317.62" cy="138.98" rx="24.07" ry="15.79"/><ellipse transform="rotate(-80.485 241.525 174.106)" cx="241.51" cy="174.1" rx="12.68" ry="19.19"/><ellipse transform="rotate(-15.896 374.045 206.995)" cx="374.06" cy="207" rx="46.38" ry="15.88"/><ellipse transform="rotate(-14.327 233.649 96.082)" cx="233.65" cy="96.07" rx="29.95" ry="19.84"/><ellipse transform="rotate(-58.723 399.783 109.03)" cx="399.8" cy="109.03" rx="20.25" ry="74.92"/><ellipse transform="rotate(-4.052 110.43 169.207)" cx="110.38" cy="169.25" rx="69.18" ry="43.78"/></g></g><defs><path id="h" d="M467.54 176.73c-245 98.43-372.4-8.82-372.4-8.82s173.37-264 372.4 8.82z"/></defs><clipPath id="i"><use xlink:href="#h"/></clipPath><g opacity=".2" clip-path="url(#i)"><path d="M379.92 215.48c-191.88 92.16-305.5-42.68-305.5-42.68s118.82-289.4 305.5 42.68z"/></g><use xlink:href="#g" fill="none" stroke="#736357" stroke-width="2.988" stroke-miterlimit="10"/><path fill="#e5e5e5" d="M694.1 141.72h46.1l74.22 195.16 19.53 2.5v18.6h-103.6v-18.6l21.72-1.56 2.5-4.22-16.88-47.66h-68.14l-16.1 47.34 3.28 3.9 20.47 2.2v18.6H600v-18.6l20.78-1.25 73.3-196.4zm8.44 52.03-25.3 70.78h51.1l-25.8-70.78zm288.32 28.54c24.32-14.3 42.67-21.44 55.04-21.44 12.8 0 22.88 4.1 30.24 12.32s11.04 20.32 11.04 36.32v90.24l5.44 5.12 16.96 1.6v11.52h-69.76v-11.52l15.04-1.6 5.76-5.12v-84.8c0-11.3-2.3-19.62-6.88-24.96-4.6-5.33-11.9-8-21.92-8-5.12 0-10.72.9-16.8 2.72s-12.54 4.43-19.36 7.84v107.2l5.76 5.12 15.04 1.6v11.52H948.3v-11.52l15.36-1.6 5.44-5.12v-84.8c0-21.97-9.4-32.96-28.16-32.96-10.24 0-22.4 3.52-36.48 10.56v107.2l5.44 5.12 15.36 1.6v11.52h-70.1v-11.52l17.3-1.6 5.44-5.12V223.9h-22.74v-9.92l37.12-11.52h12.18v17.6c10.67-6.2 20.16-10.93 28.48-14.24 8.32-3.3 15.9-4.96 22.72-4.96 16 0 27.73 7.15 35.2 21.44zM1222.2 339.4c-10.24 6.83-19.63 12-28.16 15.52-8.54 3.52-16.64 5.28-24.32 5.28-12.8 0-22.83-3.8-30.08-11.36s-10.88-17.44-10.88-29.6c0-8.32 1.87-15.3 5.6-20.96s9.44-10.6 17.12-14.88 17.38-8.1 29.12-11.52c11.73-3.4 25.6-7.04 41.6-10.88v-10.3c0-12.9-2.03-22.12-6.08-27.7s-11.84-8.38-23.36-8.38c-7.9 0-16 1.7-24.32 5.12v26.88h-22.08c-3.63 0-6.2-.7-7.68-2.08-1.5-1.38-2.24-4-2.24-7.84 0-4.9 1.5-9.54 4.48-13.92 2.98-4.37 7.25-8.18 12.8-11.42 5.54-3.24 12.32-5.8 20.32-7.68s17-2.82 27.04-2.82c16.85 0 29 3.63 36.48 10.88 7.46 7.25 11.2 19 11.2 35.2v92.8l5.76 5.12 16.96 1.6V358h-45.12l-4.16-18.58zm0-67.2c-11.3 3.2-21.07 6.2-29.28 8.96-8.22 2.77-15 5.8-20.32 9.12s-9.28 7.1-11.84 11.36-3.84 9.28-3.84 15.04c0 7.9 2.24 14.24 6.72 19.04s10.77 7.2 18.88 7.2c5.33 0 11.25-1.22 17.76-3.68 6.5-2.45 13.8-6.03 21.92-10.72V272.2zm64.95 74.24 17.3-1.6 5.44-5.12V223.9h-22.72v-9.92l37.12-11.52h12.16v17.6c10.88-5.97 20.48-10.67 28.8-14.08s15.9-5.12 22.72-5.12c14.08 0 24.8 4.1 32.16 12.32s11.04 20.32 11.04 36.32v90.24l5.44 5.12 17.28 1.6v11.52h-70.08v-11.52l15.36-1.6 5.44-5.12v-84.8c0-11.73-2.4-20.16-7.2-25.28s-13.18-7.68-25.12-7.68c-10.24 0-22.2 3.52-35.84 10.56v107.2l5.44 5.12 15.36 1.6v11.52h-70.08v-11.52h-.02zm232.32-144v137.28l5.76 5.12 17.28 1.6v11.52h-72v-11.52l16.96-1.6 5.44-5.12V223.9h-22.4v-9.92l36.8-11.52h12.16zm-10.88-71.04c5.12 0 9.5 1.8 13.12 5.44 3.62 3.63 5.44 8 5.44 13.12s-1.82 9.44-5.44 12.96c-3.63 3.52-8 5.28-13.12 5.28s-9.5-1.76-13.12-5.28-5.44-7.84-5.44-12.96c0-5.33 1.8-9.76 5.44-13.28s8-5.28 13.12-5.28zm48.32 91.84v-9.92l21.12-9.28 13.76-29.76h11.84v33.92h48.64v15.04h-48.64v84.48c0 6.2.32 11.47.96 15.84.64 4.38 1.92 7.95 3.84 10.72s4.64 4.85 8.16 6.24 8.05 2.08 13.6 2.08c6.83 0 14.2-.85 22.08-2.56v11.84c-7.47 2.35-14.78 4.1-21.92 5.28-7.15 1.17-13.8 1.76-20 1.76-13.23 0-22.08-2.56-26.56-7.68s-6.72-13.33-6.72-24.64V223.25h-20.16zm156.16-100.8v97.6c10.88-5.97 20.53-10.67 28.96-14.08s16.05-5.12 22.88-5.12c14.08 0 24.74 4.1 32 12.32 7.25 8.2 10.88 20.32 10.88 36.32v90.24l5.76 5.12 16.96 1.6v11.52h-69.76v-11.52l15.04-1.6 5.44-5.12v-84.8c0-11.73-2.4-20.16-7.2-25.28s-13.17-7.68-25.12-7.68c-10.24 0-22.2 3.52-35.84 10.56v107.2l5.76 5.12 15.04 1.6v11.52h-70.08v-11.52l17.28-1.6 5.44-5.12V143.9h-24.64v-9.92l39.04-11.52h12.16zm116.48 20.83h104.7v18.6l-19.53 1.25-3.6 4.7 49.06 132.2 48.28-132.2-3.9-4.7-20.16-1.25v-18.6h79.05v18.6l-22.66 4.38-72.03 191.72h-42.97l-73.6-192.66-22.66-3.44v-18.6h.02zm354.53 106.57h110.47v18.28l-20.16 1.56-5.16 4.38v72.97c-12.7 5-25.7 8.73-38.98 11.17s-26.95 3.67-41.02 3.67c-35.83 0-64.74-10.26-86.72-30.78s-32.97-47.4-32.97-80.62c0-33.44 11.2-60.2 33.6-80.3s52.13-30.16 89.22-30.16c11.98 0 24.32.96 37.03 2.9s26 4.82 39.84 8.67v58.26h-29.22l-7.34-38.75-5.78-5.16c-4.58-1.04-8.23-1.77-10.94-2.2s-5.2-.62-7.5-.62c-24.58 0-43.8 7.8-57.66 23.44-13.85 15.62-20.78 37.24-20.78 64.84 0 26.36 7.2 47.45 21.64 63.28s33.67 23.75 57.73 23.75h5.16v-64.38l-5.47-4.38-25-1.56.01-18.26z" style="fill:#fff;fill-opacity:1"/></svg>