<?xml version="1.0" encoding="UTF-8" standalone="no"?>
<svg
   viewBox="0 0 2164.28 512.99"
   version="1.1"
   id="svg43"
   sodipodi:docname="Logo_Mazatech_Dark.svg"
   inkscape:version="1.1.1 (c3084ef, 2021-09-22)"
   xmlns:inkscape="http://www.inkscape.org/namespaces/inkscape"
   xmlns:sodipodi="http://sodipodi.sourceforge.net/DTD/sodipodi-0.dtd"
   xmlns:xlink="http://www.w3.org/1999/xlink"
   xmlns="http://www.w3.org/2000/svg"
   xmlns:svg="http://www.w3.org/2000/svg">
  <sodipodi:namedview
     id="namedview45"
     pagecolor="#505050"
     bordercolor="#ffffff"
     borderopacity="1"
     inkscape:pageshadow="0"
     inkscape:pageopacity="0"
     inkscape:pagecheckerboard="1"
     showgrid="false"
     inkscape:zoom="0.51241059"
     inkscape:cx="741.59279"
     inkscape:cy="279.07307"
     inkscape:window-width="1293"
     inkscape:window-height="816"
     inkscape:window-x="1090"
     inkscape:window-y="251"
     inkscape:window-maximized="0"
     inkscape:current-layer="svg43" />
  <path
     fill="#e5e5e5"
     d="M848.76 365.5c0 1.4-.35 2.1-1.04 2.1-7.2 0-12.88-.1-17.05-.35l-24-.35-22.27.35c-3.7.23-8.93.35-15.66.35-.47 0-.7-.7-.7-2.1s.23-2.1.7-2.1c7.88 0 13.75-.64 17.57-1.9 3.83-1.27 6.38-3.54 7.66-6.8 1.27-3.25 1.68-8.35 1.22-15.3l-6.26-158.34-79.34 184.1c-.47.93-1.4 1.4-2.78 1.4-1.16 0-2.2-.46-3.13-1.4l-85.6-182-3.13 146.5c-.23 12.3 1.85 21 6.26 26.1 4.4 5.1 12.18 7.66 23.32 7.66.46 0 .7.7.7 2.1s-.23 2.1-.7 2.1c-6.5 0-11.48-.1-14.96-.35l-18.8-.35-18.1.35c-3.25.23-7.9.35-13.92.35-.47 0-.7-.7-.7-2.1s.23-2.1.7-2.1c9.74 0 16.76-2.6 21.05-7.83s6.55-13.86 6.8-25.93l3.13-161.47c-6.96-9.28-16.48-13.92-28.54-13.92-.47 0-.7-.7-.7-2.1s.23-2.1.7-2.1l12.88.35c2.32.23 5.57.35 9.74.35s7.7-.1 10.6-.35c2.9-.23 5.16-.35 6.8-.35 3 0 5.5 1.1 7.48 3.3s4.8 7.13 8.53 14.8l77.6 163.56 75.86-172.96c2.55-5.8 6.03-8.7 10.44-8.7 1.16 0 2.84.12 5.05.35 2.2.23 5.16.35 8.87.35l16.36-.35c2.55-.23 6.38-.35 11.48-.35.7 0 1.04.7 1.04 2.1s-.35 2.1-1.04 2.1c-11.6 0-19.9 1.7-24.88 5.05-5 3.37-7.37 9.7-7.13 18.97l6.96 161.12c.23 7.2 1.1 12.4 2.6 15.66s4.23 5.45 8.18 6.6c3.94 1.16 10.32 1.74 19.14 1.74.67-.01 1.02.7 1 2.1l.01-.01zm211.18.36c0 1.16-.4 1.74-1.16 1.74-3.67 0-9.38-.2-17.1-.58s-13.34-.58-16.82-.58c-4.25 0-9.67.2-16.24.58-6.2.4-10.92.58-14.2.58-.78 0-1.16-.58-1.16-1.74s.38-1.74 1.16-1.74c7.15 0 12.37-.67 15.66-2.03 3.3-1.35 4.93-3.67 4.93-6.96 0-2.7-1.26-6.86-3.77-12.47l-25.8-54.8H916.4l-18.27 42.92c-2.7 6.57-4.06 11.9-4.06 15.95 0 6 2.37 10.4 7.1 13.2 4.74 2.8 11.84 4.2 21.32 4.2.96 0 1.45.58 1.45 1.74s-.5 1.74-1.45 1.74c-3.48 0-8.5-.2-15.08-.58-7.35-.4-13.73-.58-19.14-.58-5.03 0-10.83.2-17.4.58-5.8.4-10.63.58-14.5.58-.96 0-1.45-.58-1.45-1.74s.5-1.74 1.45-1.74c5.4 0 10-1 13.78-3.04 3.77-2.03 7.34-5.6 10.73-10.73 3.38-5.12 7.1-12.52 11.17-22.2l61.2-144.42c.38-.58 1.06-.87 2.03-.87s1.55.3 1.74.87l68.44 144.13c6.57 14.3 12.18 23.92 16.82 28.86 4.64 4.93 10.15 7.4 16.53 7.4.76 0 1.15.58 1.15 1.74h-.02v-.01zm-141.24-83.8h64.1l-33.93-71.63-30.17 71.63zm271.44-88.47c.58-.97.82-1.6.72-1.88-.1-.3-.82-.44-2.17-.44-34.42 0-57.9.53-70.47 1.6s-21.37 3.62-26.4 7.7c-5.03 4.06-9.57 11.7-13.63 22.9 0 .4-.4.58-1.16.58-.58 0-1.16-.15-1.74-.44s-.78-.53-.58-.72l11.6-45.24c0-.2.4-.3 1.16-.3 1.93 0 2.7.3 2.32.87-.2.58-.3 1.35-.3 2.32 0 2.32 1.1 3.87 3.33 4.64s6.7 1.16 13.5 1.16h105.85c.96 0 1.7.48 2.17 1.45s.44 1.74-.14 2.32l-112.8 169.65c-.77.97-1.06 1.6-.87 1.88s.87.44 2.03.44h73.95c12.95 0 22.8-2.7 29.58-8.12 6.76-5.4 11.2-13.92 13.34-25.52.2-.38.77-.58 1.74-.58.96 0 1.45.2 1.45.58l-4.06 36.83c0 .58-.24 1.2-.72 1.88-.5.68-1.12 1.02-1.9 1.02l-138.62-.58c-.97 0-1.65-.44-2.03-1.3-.4-.87-.3-1.7.3-2.46l114.55-170.23h0zm245.9 172.27c0 1.16-.4 1.74-1.16 1.74-3.67 0-9.38-.2-17.1-.58s-13.34-.58-16.82-.58c-4.25 0-9.67.2-16.24.58-6.2.4-10.92.58-14.2.58-.78 0-1.16-.58-1.16-1.74s.38-1.74 1.16-1.74c7.15 0 12.37-.67 15.66-2.03 3.3-1.35 4.93-3.67 4.93-6.96 0-2.7-1.26-6.86-3.77-12.47l-25.8-54.8h-69.02l-18.27 42.92c-2.7 6.57-4.06 11.9-4.06 15.95 0 6 2.37 10.4 7.1 13.2 4.74 2.8 11.84 4.2 21.32 4.2.96 0 1.45.58 1.45 1.74s-.5 1.74-1.45 1.74c-3.48 0-8.5-.2-15.08-.58-7.35-.4-13.73-.58-19.14-.58-5.03 0-10.83.2-17.4.58-5.8.4-10.63.58-14.5.58-.96 0-1.45-.58-1.45-1.74s.5-1.74 1.45-1.74c5.4 0 10-1 13.78-3.04 3.77-2.03 7.34-5.6 10.73-10.73 3.38-5.12 7.1-12.52 11.17-22.2l61.2-144.42c.38-.58 1.06-.87 2.03-.87s1.55.3 1.74.87l68.44 144.13c6.57 14.3 12.18 23.92 16.82 28.86 4.64 4.93 10.15 7.4 16.53 7.4.76 0 1.15.58 1.15 1.74h-.04v-.01zm-141.23-83.8h64.1l-33.9-71.65-30.16 71.63-.04.02zm148.05-81.22c-6.1 6.2-10.5 16.72-13.2 31.6 0 .4-.53.58-1.6.58s-1.6-.2-1.6-.58l2.6-27.26c.96-11.2 1.45-19.62 1.45-25.23 0-.97.53-1.45 1.6-1.45s1.6.48 1.6 1.45c0 4.25 5.22 6.38 15.66 6.38 16.43.58 35.86.87 58.3.87 11.4 0 23.5-.2 36.25-.58l19.72-.3c6.96 0 12.13-.48 15.5-1.45 3.38-.96 5.56-2.9 6.53-5.8.2-.77.77-1.16 1.74-1.16s1.45.4 1.45 1.16c-.58 5.6-1.16 14.1-1.74 25.52s-.87 20.7-.87 27.84c0 .4-.58.58-1.74.58s-1.74-.2-1.74-.58c-.58-15.08-3.67-25.67-9.28-31.75-5.6-6.1-14.9-9.13-27.84-9.13-8.7 0-14.9.4-18.56 1.16s-6.2 2.42-7.54 4.93c-1.36 2.5-2.03 6.77-2.03 12.76v133.7c0 6 .67 10.34 2.03 13.05 1.35 2.7 3.96 4.54 7.83 5.5 3.86.97 9.96 1.45 18.27 1.45.58 0 .87.58.87 1.74s-.3 1.74-.87 1.74c-6.38 0-11.5-.1-15.37-.3l-22.62-.3-21.75.3c-3.87.2-9.18.3-15.95.3-.4 0-.58-.58-.58-1.74s.2-1.74.58-1.74c8.3 0 14.4-.48 18.27-1.45 3.87-.96 6.53-2.85 7.97-5.65 1.45-2.8 2.18-7.1 2.18-12.9V209.84c0-6-.68-10.2-2.03-12.62-1.36-2.42-3.87-3.96-7.54-4.64-3.67-.67-9.86-1-18.56-1-12.17 0-21.3 3.1-27.4 9.28l.01-.01zm295.36 122.96c.58 0 1.1.1 1.6.3s.73.48.73.87c-1.74 12.18-2.6 24.94-2.6 38.28 0 1.55-.34 2.66-1 3.33-.68.68-1.9 1.02-3.62 1.02H1611.8c-.4 0-.58-.58-.58-1.74s.2-1.74.58-1.74c7.35 0 12.7-.48 16.1-1.45 3.38-.96 5.7-2.85 6.96-5.65 1.25-2.8 1.88-7.1 1.88-12.9v-134.3c0-5.8-.63-10.05-1.88-12.76-1.26-2.7-3.58-4.6-6.96-5.65-3.4-1.06-8.75-1.6-16.1-1.6-.4 0-.58-.58-.58-1.74s.2-1.74.58-1.74h116.58c1.74 0 2.6.87 2.6 2.6l.58 35.67c0 .58-.5.92-1.45 1.02-.97.1-1.55-.15-1.74-.73-.58-10.25-3.67-18.22-9.28-23.92s-13.05-8.56-22.33-8.56h-17.7c-6.77 0-11.75.53-14.93 1.6-3.2 1.06-5.42 2.9-6.67 5.5-1.26 2.6-1.88 6.53-1.88 11.75v58.87h35.38c9.28 0 15.9-1.54 19.87-4.64 3.96-3.1 5.95-8.3 5.95-15.66 0-.38.58-.58 1.74-.58s1.74.2 1.74.58l-.3 23.5c0 5.6.1 9.86.3 12.76l.3 13.92c0 .4-.58.58-1.74.58s-1.74-.2-1.74-.58c0-8.5-2.08-14.6-6.24-18.27s-11.07-5.5-20.74-5.5h-34.5v66.7c0 5.42.58 9.38 1.74 11.9s3.3 4.25 6.38 5.22 7.92 1.45 14.5 1.45h23.2c9.28 0 17-3.3 23.2-9.86 6.18-6.57 10.34-15.66 12.47-27.26-.01-.4.38-.6 1.15-.6h-.02zM1905 185.77c8.3 1.74 16.62 4.74 24.94 9 1.35.77 2.12 1.45 2.32 2.03s.48 2.03.87 4.35l3.48 34.5c0 .58-.54.92-1.6 1-1.07.1-1.7-.14-1.9-.72-8.9-32.3-28.8-48.43-59.74-48.43-16.24 0-30.55 3.58-42.92 10.73-12.38 7.15-21.95 17.35-28.7 30.6-6.77 13.25-10.15 28.67-10.15 46.26 0 16.82 3.72 32.24 11.17 46.25 7.44 14.02 17.5 25.08 30.16 33.2s26.44 12.18 41.33 12.18c15.85 0 28.7-3.87 38.57-11.6s17.4-19.52 22.62-35.38c0-.38.48-.58 1.45-.58 1.35 0 2.03.3 2.03.87l-2.9 31.9c-.2 2.32-.48 3.77-.87 4.35s-1.16 1.26-2.32 2.03c-10.05 4.83-19.48 8.22-28.27 10.15-8.8 1.93-18.9 2.9-30.3 2.9-20.3 0-38.43-4-54.38-12.04-15.95-8.02-28.38-19.28-37.27-33.78s-13.34-31.13-13.34-49.88c0-18.17 4.54-34.26 13.63-48.28 9.08-14.02 21.6-24.9 37.55-32.63s33.88-11.6 53.8-11.6c12.17 0 22.4.87 30.73 2.6v.02h.01zm259.24 180.1c0 1.16-.3 1.74-.87 1.74-6 0-10.73-.1-14.2-.3l-20-.3-21.46.3c-3.3.2-7.83.3-13.63.3-.58 0-.87-.58-.87-1.74s.3-1.74.87-1.74c7.54 0 13.05-.48 16.53-1.45 3.48-.96 5.85-2.85 7.1-5.65s1.88-7.1 1.88-12.9v-67.86h-111.36v67.86c0 5.8.62 10.1 1.88 12.9 1.25 2.8 3.62 4.7 7.1 5.65 3.48.97 9 1.45 16.53 1.45.38 0 .58.58.58 1.74s-.2 1.74-.58 1.74c-6 0-10.73-.1-14.2-.3l-20.88-.3-20 .3c-3.48.2-8.32.3-14.5.3-.4 0-.58-.58-.58-1.74s.2-1.74.58-1.74c7.34 0 12.8-.48 16.38-1.45 3.58-.96 6-2.85 7.25-5.65s1.88-7.1 1.88-12.9v-134.3c0-5.8-.63-10.05-1.88-12.76-1.26-2.7-3.62-4.6-7.1-5.65-3.48-1.06-8.9-1.6-16.24-1.6-.4 0-.58-.58-.58-1.74s.2-1.74.58-1.74l14.8.3c8.12.4 14.6.58 19.43.58 5.6 0 12.66-.2 21.17-.58l13.92-.3c.38 0 .58.58.58 1.74s-.2 1.74-.58 1.74c-7.35 0-12.8.58-16.38 1.74s-6 3.14-7.25 5.94c-1.26 2.8-1.88 7.1-1.88 12.9v59.74h111.36V210.4c0-5.8-.63-10.1-1.88-12.9-1.26-2.8-3.62-4.8-7.1-5.94-3.48-1.16-9-1.74-16.53-1.74-.58 0-.87-.58-.87-1.74s.3-1.74.87-1.74l13.63.3c8.5.4 15.66.58 21.46.58 5.22 0 11.9-.2 20-.58l14.2-.3c.58 0 .87.58.87 1.74s-.3 1.74-.87 1.74c-7.35 0-12.76.53-16.24 1.6-3.48 1.06-5.85 2.95-7.1 5.65-1.26 2.7-1.88 6.96-1.88 12.76V344.1c0 5.8.62 10.1 1.88 12.9 1.25 2.8 3.62 4.7 7.1 5.65 3.48.97 8.9 1.45 16.24 1.45.6 0 .88.58.88 1.74l-.04.03z"
     id="path9"
     style="fill:#ffffff;fill-opacity:1" />
  <path
     fill="#fff"
     stroke="#231f20"
     stroke-miterlimit="10"
     d="M256.5 512.47a258.01 258.01 0 0 1-33.46-2.18l-2.8-.36-6.62-26.45-1.28-.25c-10.62-2.05-21.07-4.82-31.05-8.24l-1.22-.42-18.92 19.56-2.6-1.08c-20.66-8.56-40.15-19.84-57.94-33.52l-2.23-1.7 7.5-26.2-.98-.85a233.43 233.43 0 0 1-22.68-22.68l-.85-.98-26.2 7.48-1.7-2.23c-13.68-17.8-24.96-37.3-33.52-57.94l-1.08-2.6 19.56-18.92-.42-1.23c-3.42-9.96-6.2-20.4-8.24-31.05l-.25-1.28-26.46-6.62-.36-2.8a256.39 256.39 0 0 1-2.2-33.46c0-11.13.73-22.4 2.18-33.47l.36-2.8 26.46-6.62.25-1.28c2.05-10.63 4.83-21.07 8.25-31.03l.42-1.23-19.56-18.92 1.08-2.6c8.56-20.65 19.84-40.15 33.52-57.94l1.7-2.23 26.2 7.5.85-.98c7-8.04 14.64-15.67 22.68-22.68l.98-.85-7.5-26.2 2.23-1.7c17.8-13.68 37.3-24.96 57.94-33.52l2.6-1.08 18.92 19.56 1.23-.42c9.96-3.42 20.4-6.2 31.05-8.24l1.28-.25 6.62-26.45 2.8-.36C234.14 1.23 245.3.5 256.5.5s22.37.73 33.46 2.18l2.8.36 6.62 26.45 1.28.25c10.64 2.05 21.08 4.83 31.05 8.24l1.23.42 18.92-19.56 2.6 1.08c20.65 8.56 40.15 19.84 57.94 33.52l2.23 1.7-7.5 26.2.98.85a233.43 233.43 0 0 1 22.68 22.68l.85.98 26.2-7.5 1.7 2.23c13.68 17.8 24.96 37.3 33.52 57.94l1.08 2.6-19.56 18.92.42 1.23c3.42 9.96 6.2 20.4 8.25 31.05l.25 1.27 26.45 6.62.36 2.8c1.45 11.06 2.18 22.32 2.18 33.47s-.73 22.4-2.18 33.46l-.36 2.8-26.45 6.62-.25 1.27c-2.05 10.64-4.83 21.1-8.25 31.05l-.42 1.23 19.56 18.92-1.08 2.6c-8.56 20.66-19.84 40.15-33.52 57.94l-1.7 2.23-26.2-7.48-.85.98a233.43 233.43 0 0 1-22.68 22.68l-.98.85 7.5 26.2-2.23 1.7c-17.8 13.68-37.3 24.96-57.94 33.52l-2.6 1.08-18.92-19.56-1.22.42c-9.98 3.42-20.43 6.2-31.05 8.24l-1.28.25-6.62 26.45-2.8.36c-11.08 1.46-22.34 2.2-33.47 2.2v-.02z"
     id="path11" />
  <circle
     fill="#af1921"
     cx="256.5"
     cy="256.47"
     r="198.44"
     id="circle13" />
  <circle
     fill="none"
     stroke="#fff"
     stroke-width="25.048"
     cx="256.5"
     cy="256.47"
     r="198.44"
     id="circle15" />
  <radialGradient
     id="A"
     cx="1645.507"
     cy="831.172"
     r="60.26"
     fx="1703.184"
     fy="831.158"
     gradientTransform="matrix(1.9895 0.8546 -1.3673 3.1832 -1844.6244 -3780.2056)"
     gradientUnits="userSpaceOnUse">
    <stop
       offset="0"
       stop-color="#fff"
       id="stop17" />
    <stop
       offset=".635"
       stop-color="#fff"
       stop-opacity="0"
       id="stop19" />
  </radialGradient>
  <path
     fill="url(#A)"
     d="M415.78 204.17c-15.77-48.13-51.2-84.28-94.48-102.54L190.7 411.4c36.06 15.22 77.54 18.03 117.65 4.9 88.25-28.93 136.35-123.9 107.43-212.13z"
     id="path22" />
  <radialGradient
     id="B"
     cx="3448.67"
     cy="1013.307"
     r="38.78"
     fx="3485.789"
     fy="1013.299"
     gradientTransform="matrix(-1.983 -0.8203 -1.6455 3.9766 8686.2998 -975.422)"
     gradientUnits="userSpaceOnUse">
    <stop
       offset="0"
       stop-color="#fff"
       id="stop24" />
    <stop
       offset=".531"
       stop-color="#fff"
       stop-opacity="0"
       id="stop26" />
  </radialGradient>
  <path
     fill="url(#B)"
     d="M182.97 106c45.2-22.43 95.44-22.45 138.33-4.4L190.7 411.4c-35.75-15.05-66.4-42.65-84.73-80.43-40.34-83.13-5.86-183.84 77-224.96V106z"
     id="path29" />
  <path
     fill="#9e171e"
     d="M468.56 179.37l19.34-18.7c-8.45-20.4-19.52-39.42-32.8-56.67l-25.9 7.4a226.76 226.76 0 0 0-27.63-27.63l7.4-25.9c-17.25-13.27-36.28-24.34-56.67-32.8L333.6 44.4c-12.14-4.42-24.8-7.76-37.8-10.05L289.25 8.2c-10.72-1.4-21.64-2.13-32.74-2.13s-22.02.73-32.74 2.13l-6.55 26.16c-13 2.3-25.66 5.63-37.8 10.05L160.7 25.07c-20.4 8.45-39.42 19.52-56.67 32.8l7.4 25.9A226.76 226.76 0 0 0 83.8 111.4L57.9 104c-13.37 17.36-24.4 36.42-32.8 56.66l19.34 18.7c-4.42 12.14-7.76 24.8-10.05 37.8L8.23 223.7c-1.4 10.86-2.13 21.8-2.13 32.76 0 11.1.73 22.02 2.13 32.74l26.16 6.55c2.3 13 5.63 25.66 10.05 37.8l-19.34 18.7c8.45 20.4 19.52 39.42 32.8 56.67l25.9-7.4a226.76 226.76 0 0 0 27.63 27.63l-7.4 25.9c17.25 13.27 36.28 24.34 56.67 32.8l18.7-19.34c12.14 4.42 24.8 7.76 37.8 10.05l6.55 26.16c10.72 1.4 21.64 2.13 32.74 2.13s22.02-.73 32.74-2.13l6.55-26.16c13-2.3 25.66-5.63 37.8-10.05l18.7 19.34c20.4-8.45 39.42-19.52 56.67-32.8l-7.4-25.9a226.76 226.76 0 0 0 27.63-27.63l25.9 7.4c13.27-17.25 24.34-36.28 32.8-56.67l-19.34-18.7c4.42-12.14 7.76-24.8 10.05-37.8l26.16-6.55c1.4-10.72 2.13-21.64 2.13-32.74s-.73-22.02-2.13-32.74l-26.16-6.55c-2.3-13-5.66-25.65-10.07-37.8l.04-.02zM256.5 459.97c-112.4 0-203.52-91.12-203.52-203.52S144.1 52.95 256.5 52.95s203.52 91.12 203.52 203.52-91.12 203.5-203.52 203.5z"
     id="path31" />
  <defs
     id="defs34">
    <circle
       id="C"
       cx="256.5"
       cy="256.47"
       r="185.94" />
  </defs>
  <clipPath
     id="D">
    <use
       xlink:href="#C"
       id="use36" />
  </clipPath>
  <g
     clip-path="url(#D)"
     id="g41">
    <path
       fill="#fff"
       d="M311.84 367.65v-8.13h1.32c4.27 0 8.38-1.77 11.27-4.85 2.6-2.8 3.92-6.34 3.68-10l-6.42-139.7-69.56 157.78h-2.28L173.9 203.8l-5.6 138.8c-.13 4.73 1.48 9.08 4.54 12.23 2.95 3.03 7.06 4.7 11.58 4.7h1.32v8.13H96.92v-8.13h36.37c11.56 0 19.67-7.1 20.18-17.63l6.1-149.64c.43-10.52-2.35-19.2-8.04-25.14-4.46-4.64-10.52-7.2-17.08-7.2H96.92v-8.13H178l77.58 166.4 71.83-166.4h88.92v8.13h-44.48c-7.96 0-15.03 2.8-19.9 7.9-5.16 5.4-7.67 12.94-7.26 21.8l7.56 143.25c.82 16.44 11.23 26.64 27.16 26.64h36.92v8.13h-104.5l.01.02z"
       id="path39" />
  </g>
</svg>
