<svg viewBox="0 0 1237 312.5" xml:space="preserve" xmlns="http://www.w3.org/2000/svg"><g fill="#006b33"><path d="M1204.78 239.2v5.5h-8v19.1h-6v-19.1h-7v-5.5zM1228.78 263.8v-18.7l-5 18.7h-5l-5-18.7v18.7h-6v-24.6h9l4 16.4 5-16.4h9v24.6z"/></g><g fill="#006b33"><path d="M918.3 263.6h-50.5L801.6 59.8h46.2l45.4 143.3h.6l46-143.3h46.3zM1133.3 240.5c-15.7 20.3-36.3 28-56 28-63.1 0-100.2-47.1-100.2-105.9 0-60.5 37.1-107.6 100.2-107.6 41.7 0 81.1 25.7 85.9 71.9h-42.8c-5.1-22.6-22-34.3-43.1-34.3-40.3 0-55.4 34.3-55.4 69.9 0 34 15.1 68.2 55.4 68.2 29.1 0 46-15.7 48.5-44h-45.1v-33.4h85.6v110.2h-28.5zM208.6 238.3c-70.7-2.6-167.1-35.9-187.1-84.1-17.3-43.8-.1-94.9 81.5-131C151.4 2.3 224.6-3.5 281 1.8c80 7.6 156.3 50.4 156.4 50.5v60l-.1 4s-24.8-23.3-55.8-42c-29.2-17.6-56-30.1-109-35.2-12.4-1.2-33.6-4.1-67.8.9-13.8 2-33.3 3.5-77.2 23.4-14.3 7-27.3 14.5-37.5 23.2-5.3 4.6-12.5 11-17.6 16.4-12.5 16.2-19.2 28.4-16 50.5 3.7 16.6 10.8 27 31.4 42.9 8.9 6.9 10 6.8 13.9 9 36.9 19.7 66.4 27 108.5 32.4"/><path d="M212.4 47.5c70.8-.3 171.3 29.1 197.4 76.3 22.9 43 12.3 94.6-64.4 134-45.6 22.8-117.9 31.6-174.8 28.6-80.8-4.3-162.3-43.9-162.5-44L.5 182.5l-.5-4s27.7 22.2 61.1 39.6c31.4 16.4 59.7 27.7 113.3 30.6 12.5.7 34 2.7 67.5-3.6 13.5-2.5 32.8-4.9 74-26.5 13.3-7.6 25.4-15.6 34.4-24.7 4.7-4.8 11-11.5 15.4-17.1 10.4-16.7 15.5-29.1 9.5-51-5.8-16.4-14.3-26.5-36.8-41.5-9.8-6.5-10.8-6.4-15-8.4C284.1 57.7 253.7 51.7 211 48M456.3 131.5v17.7h.4c3.5-7.3 9.1-12.5 16.7-15.8s15.9-4.9 25.1-4.9c10.1 0 18.9 1.9 26.4 5.6s13.7 8.7 18.7 15.1c5 6.3 8.7 13.6 11.3 21.9 2.5 8.3 3.8 17 3.8 26.3s-1.2 18.1-3.7 26.3c-2.4 8.3-6.2 15.5-11.1 21.6-5 6.2-11.2 11-18.7 14.6-7.5 3.5-16.2 5.3-26.2 5.3-3.2 0-6.8-.3-10.8-1s-7.9-1.8-11.8-3.3-7.6-3.6-11-6.2c-3.5-2.6-6.4-5.9-8.7-9.8h-.4v67.6h-21.7v-181zm77 46.5c-1.6-5.8-4-11-7.3-15.6s-7.5-8.2-12.6-10.9-11.2-4-18-4c-7.2 0-13.4 1.4-18.4 4.3-5.1 2.9-9.2 6.6-12.4 11.3-3.2 4.6-5.5 9.9-6.9 15.8s-2.1 11.9-2.1 18c0 6.4.8 12.6 2.3 18.6s3.9 11.3 7.2 15.8c3.3 4.6 7.5 8.2 12.7 11s11.5 4.2 18.9 4.2 13.6-1.4 18.6-4.3 9-6.7 12-11.4 5.2-10.1 6.6-16.2c1.3-6.1 2-12.3 2-18.7-.2-6.1-1-12-2.6-17.9zM669.4 254c-9.8 7.4-22.1 11.1-37 11.1-10.5 0-19.6-1.7-27.3-5.1s-14.2-8.1-19.4-14.2-9.2-13.3-11.8-21.8c-2.6-8.4-4.1-17.6-4.4-27.6 0-10 1.5-19.1 4.6-27.3 3-8.3 7.3-15.4 12.8-21.5s12-10.8 19.5-14.2 15.8-5.1 24.8-5.1c11.7 0 21.4 2.4 29.1 7.2s13.9 11 18.5 18.4c4.7 7.4 7.9 15.6 9.6 24.3 1.8 8.8 2.5 17.2 2.2 25.1h-98.1c-.2 5.7.5 11.2 2 16.3s4 9.7 7.3 13.7c3.4 4 7.7 7.1 12.9 9.5s11.4 3.5 18.5 3.5c9.1 0 16.6-2.1 22.4-6.3s9.7-10.6 11.5-19.3h21.3c-2.8 14.9-9.2 25.9-19 33.3zm-5.2-84c-1.9-4.5-4.5-8.5-7.8-11.7-3.3-3.3-7.2-5.9-11.6-7.8-4.5-1.9-9.4-2.9-14.8-2.9-5.6 0-10.6 1-15 2.9-4.5 1.9-8.3 4.6-11.5 8s-5.7 7.3-7.6 11.7c-1.9 4.5-3 9.2-3.3 14.3h75.1c-.5-5.1-1.6-9.9-3.5-14.5zM725.4 131.5v20.8h.4c9-15.9 23.3-23.8 42.8-23.8 8.7 0 15.9 1.2 21.6 3.6 5.8 2.4 10.4 5.7 14 9.9s6.1 9.3 7.5 15.1 2.2 12.3 2.2 19.4v86h-21.7v-88.7c0-8.1-2.4-14.5-7.1-19.2s-11.3-7.1-19.6-7.1c-6.6 0-12.3 1-17.1 3s-8.8 4.9-12.1 8.6c-3.2 3.7-5.6 8.1-7.2 13-1.6 5-2.4 10.4-2.4 16.3v74H705V131.5z"/></g></svg>